<?xml version="1.0" encoding="UTF-8"?>
<svg version="1.1" xmlns="http://www.w3.org/2000/svg" width="295" height="248">
<path d="M0 0 C0.69770508 0.26184082 1.39541016 0.52368164 2.11425781 0.79345703 C22.39288701 8.47312382 39.46457765 19.99646087 55 35 C55.79019531 35.73863281 56.58039063 36.47726563 57.39453125 37.23828125 C77.93149833 56.91204831 89.04660584 81.87512848 96 109 C96.17210495 109.59595474 96.3442099 110.19190948 96.52153015 110.80592346 C97.06933621 113.31794889 97.15656714 115.63007559 97.19287109 118.20141602 C97.21696548 119.76068565 97.21696548 119.76068565 97.24154663 121.35145569 C97.28655257 126.1531586 97.3271593 130.95472595 97.35009766 135.7565918 C97.36652412 138.26710364 97.39363338 140.77757137 97.43212891 143.2878418 C97.66632168 158.6641245 97.01937755 172.39974286 92 187 C91.51816447 188.46514912 91.03663581 189.9303992 90.55541992 191.39575195 C84.94651739 208.36610458 74.03952594 226.96213794 58 236 C55.33282681 237.04046162 54.43184035 237.17993348 51.75 236.0625 C51.1725 235.711875 50.595 235.36125 50 235 C49.55260217 227.80849421 50.5907132 221.39191279 52.24609375 214.39453125 C53.48447019 208.81862902 54.15121655 203.39851548 54.1875 197.6875 C54.20167969 196.66011719 54.21585938 195.63273438 54.23046875 194.57421875 C54.2625515 191.8350615 54.2625515 191.8350615 52 190 C45.28623628 190.10656768 40.51619685 191.87687502 34.578125 194.94140625 C31.79936089 196.08238363 29.97248472 196.32971247 27 196 C25.125 194.375 25.125 194.375 24 192 C24.29264711 186.856727 26.26731898 183.51586048 29.375 179.5625 C29.81908203 178.994104 30.26316406 178.42570801 30.72070312 177.84008789 C37.4008233 169.67329062 46.18128368 165.42909615 56 162 C57.1713384 155.16191638 57.64166243 149.08108221 53.73828125 143.05078125 C49.67479301 137.96342195 45.82217814 135.37629042 39.25 134.5 C29.68048182 134.93663201 21.90261252 142.04909476 15 148 C14.15566406 148.721875 13.31132812 149.44375 12.44140625 150.1875 C7.79721096 154.20912765 7.79721096 154.20912765 4 159 C3.64827576 169.55172727 10.2001585 179.00439712 16 187.4375 C18.56931722 191.42647385 18.71396725 194.31954801 18 199 C15.95986595 200.99964501 14.61407381 201.90255048 11.7800293 202.35229492 C5.65526811 202.20047232 -0.18077275 201.51226829 -6.1875 200.3125 C-7.09951172 200.13315918 -8.01152344 199.95381836 -8.95117188 199.76904297 C-20.62339371 197.3759504 -31.33975742 193.73200089 -41.8046875 187.94140625 C-48.7351277 185.89955284 -56.11216905 189.61251306 -62.6875 191.9375 C-80.32034574 198 -80.32034574 198 -89 198 C-86.63744792 202.72510416 -83.9814931 206.17910591 -80.3125 210 C-76.51753158 214.06870385 -74.87889667 216.4292469 -75 222 C-77.11193759 223.86433112 -78.43064526 224.93728278 -81.26953125 225.25 C-97.48459117 223.65589273 -115.94638671 216.25668018 -128 205 C-128.66 204.01 -129.32 203.02 -130 202 C-132.30778531 201.26600869 -132.30778531 201.26600869 -135 200.9375 C-135.99257812 200.77765625 -136.98515625 200.6178125 -138.0078125 200.453125 C-138.99523437 200.30359375 -139.98265625 200.1540625 -141 200 C-153.45970924 198.04706752 -164.03574119 193.7787894 -174 186 C-175.546875 184.8553125 -175.546875 184.8553125 -177.125 183.6875 C-177.74375 183.130625 -178.3625 182.57375 -179 182 C-179 181.34 -179 180.68 -179 180 C-179.99 179.67 -180.98 179.34 -182 179 C-197.63128735 160.59974175 -199.13908975 140.08242135 -197.87988281 116.77685547 C-197.09890354 107.54687435 -193.99543145 98.70749394 -191 90 C-190.63003906 88.8965625 -190.26007813 87.793125 -189.87890625 86.65625 C-176.25949168 48.5784404 -145.07876682 20.37092995 -109.40234375 3.08203125 C-75.63348834 -12.12768086 -34.5240843 -13.17462414 0 0 Z M-74 139 C-75.4284032 140.21690541 -75.4284032 140.21690541 -75.375 143.8125 C-75.32075576 147.16358878 -75.14477392 147.82012937 -72.9375 150.5625 C-69.08838451 152.44610971 -67.07579849 152.207644 -63 151 C-60.39942839 148.73498601 -60.05268839 147.42150709 -59.625 144 C-60.04885405 140.60916757 -60.46489328 139.28159605 -63 137 C-67.74672108 135.45215617 -70.03793131 136.05674897 -74 139 Z " fill="#2AA2D9" transform="translate(198,9)"/>
<path d="M0 0 C1.175625 0.8971875 1.175625 0.8971875 2.375 1.8125 C2.375 2.4725 2.375 3.1325 2.375 3.8125 C3.035 4.1425 3.695 4.4725 4.375 4.8125 C-30.4020461 16.8125 -30.4020461 16.8125 -39.625 16.8125 C-37.26244792 21.53760416 -34.6064931 24.99160591 -30.9375 28.8125 C-27.14253158 32.88120385 -25.50389667 35.2417469 -25.625 40.8125 C-27.73693759 42.67683112 -29.05564526 43.74978278 -31.89453125 44.0625 C-48.10959117 42.46839273 -66.57138671 35.06918018 -78.625 23.8125 C-79.285 22.8225 -79.945 21.8325 -80.625 20.8125 C-82.93278531 20.07850869 -82.93278531 20.07850869 -85.625 19.75 C-86.61757812 19.59015625 -87.61015625 19.4303125 -88.6328125 19.265625 C-89.62023437 19.11609375 -90.60765625 18.9665625 -91.625 18.8125 C-104.08470924 16.85956752 -114.66074119 12.5912894 -124.625 4.8125 C-125.65625 4.049375 -126.6875 3.28625 -127.75 2.5 C-128.36875 1.943125 -128.9875 1.38625 -129.625 0.8125 C-129.625 0.1525 -129.625 -0.5075 -129.625 -1.1875 C-130.615 -1.5175 -131.605 -1.8475 -132.625 -2.1875 C-131.965 -3.5075 -131.305 -4.8275 -130.625 -6.1875 C-129.573125 -5.73375 -128.52125 -5.28 -127.4375 -4.8125 C-108.6469978 2.03516142 -85.15020332 0.84564171 -66.625 -6.1875 C-64.61576445 -7.16881162 -62.61434558 -8.16646907 -60.625 -9.1875 C-39.81861899 -16.95393715 -18.20940208 -11.3808763 0 0 Z " fill="#A8E2F4" transform="translate(148.625,190.1875)"/>
<path d="M0 0 C1.2684375 0.7734375 1.2684375 0.7734375 2.5625 1.5625 C7.97143428 6.97143428 11.80325414 14.41697875 12.1328125 22.09375 C12.13023437 23.2178125 12.12765625 24.341875 12.125 25.5 C12.12886719 27.18609375 12.12886719 27.18609375 12.1328125 28.90625 C12.02266367 31.4720699 11.75270662 33.56266427 11 36 C9.41913952 36.36504603 7.83516093 36.71660506 6.25 37.0625 C5.36828125 37.25972656 4.4865625 37.45695312 3.578125 37.66015625 C1.01320972 37.99825872 -0.57091639 37.81158635 -3 37 C-0.69 36.01 1.62 35.02 4 34 C5.1713384 27.16191638 5.64166243 21.08108221 1.73828125 15.05078125 C-2.32520699 9.96342195 -6.17782186 7.37629042 -12.75 6.5 C-22.33650832 6.93740722 -30.07216665 14.06185713 -37 20 C-37.83273438 20.67546875 -38.66546875 21.3509375 -39.5234375 22.046875 C-44.2770836 26.01593873 -47.14062006 29.0499842 -49 35 C-49.33 35 -49.66 35 -50 35 C-50 33.35 -50 31.7 -50 30 C-50.66 30 -51.32 30 -52 30 C-52.99025519 19.65733466 -50.76091009 12.03266005 -44.2890625 3.83203125 C-31.54262511 -9.69303466 -14.99888161 -9.51852102 0 0 Z " fill="#AAE2F1" transform="translate(250,137)"/>
<path d="M0 0 C1.03483177 1.64526624 2.02857806 3.31651635 3 5 C4.28464036 6.68823374 5.59819869 8.35479301 6.9375 10 C7.60652344 10.825 8.27554688 11.65 8.96484375 12.5 C10.37079233 14.22707695 11.79104088 15.94257595 13.22265625 17.6484375 C15 20 15 20 15.5 22.625 C15 25 15 25 13.26953125 26.6484375 C9.01961622 29.17936796 4.67405443 27.90556289 0 27 C-13.01227783 23.64245766 -28.34132608 17.65867392 -38 8 C-39.5 5.125 -39.5 5.125 -40 3 C-37.43658938 1.71829469 -35.48483406 1.8068555 -32.6171875 1.71875 C-31.53179687 1.68136719 -30.44640625 1.64398438 -29.328125 1.60546875 C-28.18859375 1.57066406 -27.0490625 1.53585938 -25.875 1.5 C-17.88812983 1.25098673 -7.74160641 -1.32713253 0 0 Z " fill="#2CA1D6" transform="translate(108,206)"/>
<path d="M0 0 C0 0.66 0 1.32 0 2 C-1.08667969 2.56267578 -1.08667969 2.56267578 -2.1953125 3.13671875 C-11.42023766 7.43273151 -11.42023766 7.43273151 -17.80078125 14.8671875 C-18.46321778 16.99998651 -18.46321778 16.99998651 -19 20 C-18.01 20.33 -17.02 20.66 -16 21 C-16 21.66 -16 22.32 -16 23 C-15.31035156 22.7834375 -14.62070313 22.566875 -13.91015625 22.34375 C-7.7000832 20.50372836 -2.46971792 19.68181715 4 20 C8.41243927 27.17021382 9.23802177 33.82124914 7.57421875 42.125 C7.23220208 43.37819085 6.87398647 44.62706931 6.5 45.87109375 C5.85880805 48.60116885 5.72892146 51.26453922 5.5625 54.0625 C5.22185293 59.03973219 4.30305508 62.59415549 2 67 C3.98 67 5.96 67 8 67 C8 66.34 8 65.68 8 65 C10.97 64.505 10.97 64.505 14 64 C10.6207338 67.77682693 8.04900708 70.03316886 3 71 C0.81640625 70.03515625 0.81640625 70.03515625 -1 69 C-1.44739783 61.80849421 -0.4092868 55.39191279 1.24609375 48.39453125 C2.48447019 42.81862902 3.15121655 37.39851548 3.1875 31.6875 C3.20876953 30.14642578 3.20876953 30.14642578 3.23046875 28.57421875 C3.2625515 25.8350615 3.2625515 25.8350615 1 24 C-5.71376372 24.10656768 -10.48380315 25.87687502 -16.421875 28.94140625 C-19.20063911 30.08238363 -21.02751528 30.32971247 -24 30 C-25.875 28.375 -25.875 28.375 -27 26 C-26.7073276 20.85628259 -24.73215346 17.51657775 -21.625 13.5625 C-21.18454346 12.99700439 -20.74408691 12.43150879 -20.2902832 11.84887695 C-15.17431413 5.58102742 -8.5497075 -0.66003128 0 0 Z " fill="#3299C7" transform="translate(249,175)"/>
<path d="M0 0 C1 2 1 2 0.0625 5.125 C-0.4634375 6.548125 -0.4634375 6.548125 -1 8 C-2.65 8.33 -4.3 8.66 -6 9 C-6.0928125 9.99 -6.0928125 9.99 -6.1875 11 C-7.30136755 15.11274173 -9.19856098 18.76815121 -12 22 C-14.16796875 22.734375 -14.16796875 22.734375 -16 23 C-16.0825 24.051875 -16.165 25.10375 -16.25 26.1875 C-17.07329722 30.37259419 -18.20649641 31.87784893 -21 35 C-22.85268975 37.92154922 -24.49957324 40.88372903 -26 44 C-26.66 44 -27.32 44 -28 44 C-28.33 46.31 -28.66 48.62 -29 51 C-29.99 51 -30.98 51 -32 51 C-31.938125 52.3921875 -31.938125 52.3921875 -31.875 53.8125 C-31.88803428 60.23840172 -32.85365974 66.91836457 -35.625 72.75 C-37.17557864 76.41500407 -37.07567151 79.06508153 -37 83 C-37.66 83.99 -38.32 84.98 -39 86 C-40.4214526 90.82929409 -40.22076265 95.88272173 -40.25 100.875 C-40.270625 101.74769531 -40.29125 102.62039062 -40.3125 103.51953125 C-40.34685887 109.2316927 -39.40071051 112.85382942 -37 118 C-36.70703125 120.87109375 -36.70703125 120.87109375 -36.8125 123.4375 C-36.83957031 124.30246094 -36.86664063 125.16742188 -36.89453125 126.05859375 C-36.92933594 126.69925781 -36.96414062 127.33992188 -37 128 C-38.59024394 125.6146341 -39.57404053 123.8113165 -40.5625 121.1875 C-40.81128906 120.54167969 -41.06007812 119.89585937 -41.31640625 119.23046875 C-47.48350991 99.10809052 -42.65522586 75.34624107 -36 56 C-35.63003906 54.8965625 -35.26007812 53.793125 -34.87890625 52.65625 C-27.62752353 32.38248793 -14.82299822 15.3323796 0 0 Z " fill="#51A1C4" transform="translate(43,43)"/>
<path d="M0 0 C4.91028468 3.95125178 9.05046754 8.10633888 12.9375 13.0625 C13.71335449 14.04802856 13.71335449 14.04802856 14.50488281 15.0534668 C28.09355261 32.58471114 35.5401103 51.70122081 41 73 C41.17210495 73.59595474 41.3442099 74.19190948 41.52153015 74.80592346 C42.06933621 77.31794889 42.15656714 79.63007559 42.19287109 82.20141602 C42.20893402 83.24092911 42.22499695 84.2804422 42.24154663 85.35145569 C42.28655257 90.1531586 42.3271593 94.95472595 42.35009766 99.7565918 C42.36652412 102.26710364 42.39363338 104.77757137 42.43212891 107.2878418 C42.66664072 122.68507158 41.9884435 136.36780511 37 151 C36.61634277 152.15701416 36.23268555 153.31402832 35.83740234 154.50610352 C35.56105957 155.32908936 35.2847168 156.1520752 35 157 C34.67 157 34.34 157 34 157 C33.74972404 150.49282503 33.74972404 150.49282503 34.97265625 148.0847168 C36.19745351 145.59932141 36.37370821 143.65335163 36.5625 140.89453125 C36.63726562 139.91033203 36.71203125 138.92613281 36.7890625 137.91210938 C36.85867188 136.88923828 36.92828125 135.86636719 37 134.8125 C37.78465303 123.50041879 37.78465303 123.50041879 39.04296875 118.59765625 C40.47584693 112.66287476 40.32933618 106.69949209 40.3125 100.625 C40.32861328 99.47 40.34472656 98.315 40.36132812 97.125 C40.36509748 90.44570927 39.63259836 84.74326972 37.67016602 78.36230469 C36.84602549 75.45724688 36.69522061 72.82267107 36.8125 69.8125 C36.85310547 68.42998047 36.85310547 68.42998047 36.89453125 67.01953125 C36.92933594 66.35308594 36.96414063 65.68664062 37 65 C36.01 64.67 35.02 64.34 34 64 C34 63.01 34 62.02 34 61 C33.34 61 32.68 61 32 61 C31.89042969 60.443125 31.78085937 59.88625 31.66796875 59.3125 C30.69447522 54.62706775 29.42747122 50.30742746 27.6640625 45.86328125 C26.74662352 43.28905541 26.33804474 40.70435792 26 38 C25.01 38 24.02 38 23 38 C22.3291288 36.3767313 21.66342971 34.75132422 21 33.125 C20.62875 32.22007813 20.2575 31.31515625 19.875 30.3828125 C19 28 19 28 19 26 C18.01 25.67 17.02 25.34 16 25 C15.6278958 23.67696283 15.29369827 22.34262065 15 21 C14.34 20.67 13.68 20.34 13 20 C12.67 19.01 12.34 18.02 12 17 C11.319375 16.319375 10.63875 15.63875 9.9375 14.9375 C9.298125 14.298125 8.65875 13.65875 8 13 C8 12.34 8 11.68 8 11 C6.68 10.34 5.36 9.68 4 9 C4 8.34 4 7.68 4 7 C2.68 6.34 1.36 5.68 0 5 C0 3.35 0 1.7 0 0 Z " fill="#61A3C1" transform="translate(253,45)"/>
<path d="M0 0 C1.13429443 0.4326416 1.13429443 0.4326416 2.29150391 0.87402344 C16.71572202 6.43144404 16.71572202 6.43144404 18 9 C9.01127355 8.1638394 0.39159775 5.26610103 -7.6875 1.3125 C-12.16197069 -0.83629412 -15.9601842 -1.60916153 -20.90625 -1.76171875 C-23 -2 -23 -2 -26 -4 C-32.41260842 -5.44034762 -38.94223563 -5.18605323 -45.47753906 -5.18530273 C-47.62584922 -5.18750087 -49.77365465 -5.20572662 -51.921875 -5.22460938 C-53.29426909 -5.2275418 -54.6666656 -5.2295276 -56.0390625 -5.23046875 C-57.27865723 -5.23457764 -58.51825195 -5.23868652 -59.79541016 -5.24291992 C-62.86844372 -5.00997246 -64.3907558 -4.50807514 -67 -3 C-68.9717791 -2.76132523 -70.95385011 -2.600058 -72.9375 -2.5 C-77.10938661 -2.28903228 -80.17030848 -1.63952868 -84 0 C-85.57520634 0.38872027 -87.15894387 0.74482269 -88.75 1.0625 C-91.65761214 1.48335608 -91.65761214 1.48335608 -94 3 C-96.34723966 3.397493 -98.70328548 3.74368723 -101.0625 4.0625 C-102.35285156 4.23910156 -103.64320312 4.41570313 -104.97265625 4.59765625 C-105.97167969 4.73042969 -106.97070312 4.86320313 -108 5 C-108.13921875 5.93779297 -108.13921875 5.93779297 -108.28125 6.89453125 C-108.5184375 7.58933594 -108.755625 8.28414062 -109 9 C-114.58376131 11.69217063 -119.85225618 12.58730423 -126 13 C-123.20441876 9.60082736 -119.37064098 7.95836076 -115.5 6.0625 C-114.4181543 5.53027832 -114.4181543 5.53027832 -113.31445312 4.98730469 C-78.70868075 -11.79078388 -35.92900225 -13.90040087 0 0 Z " fill="#57A4C3" transform="translate(198,9)"/>
<path d="M0 0 C0 -0.66 0 -1.32 0 -2 C1.65 -2.33 3.3 -2.66 5 -3 C4.979375 -2.05125 4.95875 -1.1025 4.9375 -0.125 C4.77448174 2.90666283 4.77448174 2.90666283 6 5 C8.02463255 5.65213292 8.02463255 5.65213292 10 6 C10.495 8.97 10.495 8.97 11 12 C10.505 11.01 10.505 11.01 10 10 C9.4225 9.71125 8.845 9.4225 8.25 9.125 C6 8 6 8 3.6875 6.0625 C-3.00895101 0.92336318 -10.68975414 -0.78316453 -19 0 C-28.89663313 1.85660208 -36.18565205 6.76300708 -42 15 C-45.98870075 21.75114553 -46.73767824 28.24839193 -47 36 C-46.34 36 -45.68 36 -45 36 C-44.87625 36.54785156 -44.7525 37.09570312 -44.625 37.66015625 C-42.01623283 47.68760507 -36.86465734 56.94212494 -31 65.4375 C-28.43068278 69.42647385 -28.28603275 72.31954801 -29 77 C-31.11368686 79.09934057 -32.43744622 79.92316339 -35.40234375 80.328125 C-36.23894531 80.30234375 -37.07554687 80.2765625 -37.9375 80.25 C-38.81019531 80.22421875 -39.68289062 80.1984375 -40.58203125 80.171875 C-43.12258014 79.99128671 -45.53663979 79.65689606 -48 79 C-48 78.34 -48 77.68 -48 77 C-47.09636719 76.93941406 -46.19273437 76.87882812 -45.26171875 76.81640625 C-44.08222656 76.73261719 -42.90273437 76.64882812 -41.6875 76.5625 C-40.51574219 76.48128906 -39.34398437 76.40007812 -38.13671875 76.31640625 C-34.97409042 76.1132629 -34.97409042 76.1132629 -32 75 C-32.59522337 73.55877387 -33.20157619 72.12214132 -33.8125 70.6875 C-34.14894531 69.88699219 -34.48539063 69.08648437 -34.83203125 68.26171875 C-35.86902608 65.96405543 -35.86902608 65.96405543 -37.60546875 64.42578125 C-39.86266134 62.11800731 -39.55496409 59.11525136 -40 56 C-41.49985609 54.33289654 -41.49985609 54.33289654 -43 53 C-43 51.68 -43 50.36 -43 49 C-43.99 49 -44.98 49 -46 49 C-50.61866289 41.61013938 -49.80727425 29.66482973 -48.375 21.375 C-47.09328873 16.32996627 -44.55786444 11.79880334 -41 8 C-39.33589588 7.32696233 -37.66950606 6.65952388 -36 6 C-35.67 5.01 -35.34 4.02 -35 3 C-33.07421875 1.6484375 -33.07421875 1.6484375 -30.6875 0.375 C-29.90761719 -0.05039063 -29.12773437 -0.47578125 -28.32421875 -0.9140625 C-19.08583408 -5.23048425 -9.35934338 -2.70166613 0 0 Z " fill="#36A2CE" transform="translate(245,131)"/>
<path d="M0 0 C0.103125 0.639375 0.20625 1.27875 0.3125 1.9375 C0.539375 2.618125 0.76625 3.29875 1 4 C1.99 4.33 2.98 4.66 4 5 C4.99 6.485 4.99 6.485 6 8 C6.99 8 7.98 8 9 8 C9.144375 8.78375 9.28875 9.5675 9.4375 10.375 C10.68414419 13.09756677 10.68414419 13.09756677 12.78735352 13.65429688 C18.34089516 14.75534049 23.86433015 15.58040702 29.5 16.125 C30.3556958 16.20919189 31.2113916 16.29338379 32.09301758 16.38012695 C37.96144183 16.9147033 43.79516277 17.18116143 49.6875 17.1875 C50.41195312 17.18830566 51.13640625 17.18911133 51.8828125 17.18994141 C55.22680819 17.43368094 55.22680819 17.43368094 58 16 C59.39347545 15.86798654 60.79018452 15.76941967 62.1875 15.6875 C66.79551987 15.2310452 69.18109155 13.64985485 73 11 C82.42719871 7.50674999 91.14143189 6.81787908 101.125 6.8125 C102.29804687 6.80025391 103.47109375 6.78800781 104.6796875 6.77539062 C115.36690884 6.75757859 124.59936442 6.90612995 133 14 C131 15 131 15 128.6796875 14.29296875 C127.75414062 13.92816406 126.82859375 13.56335938 125.875 13.1875 C118.13204373 10.14954124 111.15234815 8.60799641 102.875 8.625 C101.63266602 8.62741699 101.63266602 8.62741699 100.36523438 8.62988281 C92.72001238 8.78042579 86.20118821 10.36914196 79 13 C77.57300781 13.52013672 77.57300781 13.52013672 76.1171875 14.05078125 C75.21226563 14.38464844 74.30734375 14.71851563 73.375 15.0625 C71.58537677 15.71397436 69.79373851 16.35994353 68 17 C67.17371094 17.30292969 66.34742187 17.60585937 65.49609375 17.91796875 C49.17723493 22.9775276 26.72708539 21.81210855 11 15 C11 15.66 11 16.32 11 17 C7.21442819 15.51251262 5.58432807 13.44650134 3.3125 10.125 C2.71050781 9.26132813 2.10851562 8.39765625 1.48828125 7.5078125 C0.14833295 5.24994686 -0.65760876 3.58824566 -1 1 C-0.67 0.67 -0.34 0.34 0 0 Z " fill="#3BA2CC" transform="translate(7,170)"/>
<path d="M0 0 C2.55910183 1.42284051 5.02198068 2.82357752 7 5 C7 6.32 7 7.64 7 9 C7.99 8.67 8.98 8.34 10 8 C10 8.66 10 9.32 10 10 C10.99 10.33 11.98 10.66 13 11 C13 16.94 13 22.88 13 29 C11.35 28.67 9.7 28.34 8 28 C8.02320313 27.443125 8.04640625 26.88625 8.0703125 26.3125 C8.26752681 17.97315224 7.5334465 11.71926224 1.6328125 5.4765625 C-2.37338425 1.85373386 -6.36400465 0.34550592 -11.8046875 0.59375 C-24.11779234 2.87233168 -34.11675827 13.93212829 -43 22 C-43.66 21.67 -44.32 21.34 -45 21 C-44.04663979 19.68388323 -43.08714226 18.37221039 -42.125 17.0625 C-41.59132812 16.33160156 -41.05765625 15.60070312 -40.5078125 14.84765625 C-39 13 -39 13 -37 12 C-36.690625 11.360625 -36.38125 10.72125 -36.0625 10.0625 C-35 8 -35 8 -32 6 C-31.01 6 -30.02 6 -29 6 C-29 5.34 -29 4.68 -29 4 C-27.30729167 3.2890625 -25.61458333 2.578125 -23.921875 1.8671875 C-21.79662086 0.9493681 -21.79662086 0.9493681 -19.125 -0.6875 C-12.8264857 -3.33287601 -6.28142811 -2.4427776 0 0 Z " fill="#B9D3DE" transform="translate(247,143)"/>
<path d="M0 0 C3.125 1.9375 3.125 1.9375 5 4 C5 4.66 5 5.32 5 6 C5.66 6 6.32 6 7 6 C8.03168198 10.29867491 8.38495761 12.28507873 6.25 16.25 C5.5075 17.1575 4.765 18.065 4 19 C3.58234375 19.556875 3.1646875 20.11375 2.734375 20.6875 C0.12516018 22.66204095 -1.81382227 22.10922592 -5 21.75 C-6.051875 21.64171875 -7.10375 21.5334375 -8.1875 21.421875 C-11 21 -11 21 -14 20 C-14 19.01 -14 18.02 -14 17 C-13.25234375 17.11859375 -12.5046875 17.2371875 -11.734375 17.359375 C-5.78827419 18.31440018 -5.78827419 18.31440018 -0.3125 16.4375 C1.34517462 13.35896141 1.44069086 11.45207841 1 8 C-0.69851109 4.77005187 -0.69851109 4.77005187 -3.8125 4.125 C-6.9739745 3.81995197 -6.9739745 3.81995197 -9.75 4.875 C-13.08368813 8.02348323 -13.37854456 11.57560828 -14 16 C-15.32 15.67 -16.64 15.34 -18 15 C-18 12.69 -18 10.38 -18 8 C-17.34 7.67 -16.68 7.34 -16 7 C-15.896875 6.401875 -15.79375 5.80375 -15.6875 5.1875 C-13.31972379 -2.3463334 -6.31789271 -1.64679499 0 0 Z " fill="#339BC5" transform="translate(136,142)"/>
<path d="M0 0 C-3.34235213 1.98777776 -6.08148701 2.30549745 -9.9375 2.5 C-14.10938661 2.71096772 -17.17030848 3.36047132 -21 5 C-22.57520634 5.38872027 -24.15894387 5.74482269 -25.75 6.0625 C-28.65761214 6.48335608 -28.65761214 6.48335608 -31 8 C-33.34723966 8.397493 -35.70328548 8.74368723 -38.0625 9.0625 C-39.35285156 9.23910156 -40.64320312 9.41570313 -41.97265625 9.59765625 C-42.97167969 9.73042969 -43.97070312 9.86320313 -45 10 C-45.13921875 10.93779297 -45.13921875 10.93779297 -45.28125 11.89453125 C-45.5184375 12.58933594 -45.755625 13.28414062 -46 14 C-51.58376131 16.69217063 -56.85225618 17.58730423 -63 18 C-60.20441876 14.60082736 -56.37064098 12.95836076 -52.5 11.0625 C-51.4181543 10.53027832 -51.4181543 10.53027832 -50.31445312 9.98730469 C-44.65678446 7.24426908 -39.0221546 4.83602274 -33 3 C-31.80117187 2.61714844 -30.60234375 2.23429688 -29.3671875 1.83984375 C-19.29825266 -1.15686305 -10.39092002 -1.18312456 0 0 Z " fill="#4EA3C5" transform="translate(135,4)"/>
<path d="M0 0 C3.2791695 1.38847718 6.15476925 3.00574599 9.16796875 4.91796875 C10.01359375 5.43359375 10.85921875 5.94921875 11.73046875 6.48046875 C17.13940303 11.88940303 20.97122289 19.3349475 21.30078125 27.01171875 C21.29820312 28.13578125 21.295625 29.25984375 21.29296875 30.41796875 C21.29683594 32.1040625 21.29683594 32.1040625 21.30078125 33.82421875 C21.19063242 36.39003865 20.92067537 38.48063302 20.16796875 40.91796875 C18.58710827 41.28301478 17.00312968 41.63457381 15.41796875 41.98046875 C14.53625 42.17769531 13.65453125 42.37492187 12.74609375 42.578125 C10.18117847 42.91622747 8.59705236 42.7295551 6.16796875 41.91796875 C11.69808623 39.15291001 12.51761244 38.80957603 19.16796875 39.91796875 C18.67296875 31.00796875 18.67296875 31.00796875 18.16796875 21.91796875 C15.69296875 20.92796875 15.69296875 20.92796875 13.16796875 19.91796875 C13.16796875 18.59796875 13.16796875 17.27796875 13.16796875 15.91796875 C11.51796875 15.25796875 9.86796875 14.59796875 8.16796875 13.91796875 C8.16796875 12.59796875 8.16796875 11.27796875 8.16796875 9.91796875 C8.82796875 9.91796875 9.48796875 9.91796875 10.16796875 9.91796875 C8.04016296 7.57738238 6.05234654 6.21096569 3.16796875 4.91796875 C3.16796875 4.25796875 3.16796875 3.59796875 3.16796875 2.91796875 C2.16830078 2.84449219 2.16830078 2.84449219 1.1484375 2.76953125 C-5.60960924 2.22132606 -12.18392039 1.24244732 -18.83203125 -0.08203125 C-12.50259775 -3.58906836 -6.50432474 -2.3845459 0 0 Z " fill="#9ADAEC" transform="translate(240.83203125,132.08203125)"/>
<path d="M0 0 C3.875 1.75 3.875 1.75 5 4 C8.325241 5.35423121 11.70177726 6.50746407 15.09375 7.68359375 C16.0528125 8.11800781 17.011875 8.55242187 18 9 C18.33 9.99 18.66 10.98 19 12 C20.93822121 12.73555141 20.93822121 12.73555141 23.25 13.0625 C27.43393704 13.86480805 31.04394463 15.01167729 34.85546875 16.9375 C37.04607016 18.02282529 39.2610891 19.01855961 41.5 20 C44.37537997 21.26044053 47.20199132 22.57555922 50 24 C44.12272048 24.32912765 39.43915199 23.21037584 33.875 21.375 C33.04766357 21.10864746 32.22032715 20.84229492 31.36791992 20.56787109 C24.30937409 18.23348424 17.63707443 15.36024235 11 12 C11 11.34 11 10.68 11 10 C10.34 10 9.68 10 9 10 C9 9.34 9 8.68 9 8 C8.29875 7.7525 7.5975 7.505 6.875 7.25 C3.62997541 5.83911974 0.89683263 4.02104602 -2 2 C-1.34 1.34 -0.68 0.68 0 0 Z " fill="#449CC1" transform="translate(142,184)"/>
<path d="M0 0 C3.29710387 4.9456558 2.70304157 11.3928054 1.58203125 17.14453125 C1.2332675 18.39011609 0.87239347 19.63236826 0.5 20.87109375 C-0.14119195 23.60116885 -0.27107854 26.26453922 -0.4375 29.0625 C-0.77814707 34.03973219 -1.69694492 37.59415549 -4 42 C-2.02 42 -0.04 42 2 42 C2 41.34 2 40.68 2 40 C4.97 39.505 4.97 39.505 8 39 C4.6207338 42.77682693 2.04900708 45.03316886 -3 46 C-5.18359375 45.03515625 -5.18359375 45.03515625 -7 44 C-7.41223573 36.82404475 -6.62141962 30.72333012 -4 24 C-3.67 23.67 -3.34 23.34 -3 23 C-2.835 21.845 -2.67 20.69 -2.5 19.5 C-2 16 -2 16 -1 15 C-0.76346477 12.47403741 -0.57826308 9.96892793 -0.4375 7.4375 C-0.37272461 6.37112305 -0.37272461 6.37112305 -0.30664062 5.28320312 C-0.20028223 3.52238088 -0.09961154 1.7612168 0 0 Z " fill="#369BC8" transform="translate(255,200)"/>
<path d="M0 0 C2.76389168 3.45703066 4.90707493 7.21152719 7.0625 11.0625 C8.96070545 14.43747446 10.8502135 17.77532024 13 21 C13.3359375 22.9375 13.3359375 22.9375 13.375 25 C13.40335938 25.680625 13.43171875 26.36125 13.4609375 27.0625 C13 29 13 29 11.28515625 30.734375 C8.62877175 32.20560334 7.07715661 32.34290159 4.0625 32.25 C3.18980469 32.22421875 2.31710938 32.1984375 1.41796875 32.171875 C-1.12258014 31.99128671 -3.53663979 31.65689606 -6 31 C-6 30.34 -6 29.68 -6 29 C-5.09636719 28.93941406 -4.19273437 28.87882812 -3.26171875 28.81640625 C-1.49248047 28.69072266 -1.49248047 28.69072266 0.3125 28.5625 C2.07013672 28.44068359 2.07013672 28.44068359 3.86328125 28.31640625 C7.02590958 28.1132629 7.02590958 28.1132629 10 27 C9.40477663 25.55877387 8.79842381 24.12214132 8.1875 22.6875 C7.68283203 21.48673828 7.68283203 21.48673828 7.16796875 20.26171875 C6.1302469 17.9648058 6.1302469 17.9648058 4.3984375 16.421875 C2.10941485 14.09448885 2.38671147 11.14893626 2 8 C1.34870203 6.65909241 0.68486725 5.32407669 0 4 C0 2.68 0 1.36 0 0 Z " fill="#63A4C4" transform="translate(203,179)"/>
<path d="M0 0 C0.495 0.99 0.495 0.99 1 2 C1.66 2.33 2.32 2.66 3 3 C-31.7770461 15 -31.7770461 15 -41 15 C-41.33 15.66 -41.66 16.32 -42 17 C-42 15.68 -42 14.36 -42 13 C-39.11604619 10.83703464 -36.49621792 9.71980957 -33 9 C-31.824375 8.649375 -30.64875 8.29875 -29.4375 7.9375 C-26 7 -26 7 -23 7 C-22.39800781 6.68933594 -21.79601562 6.37867188 -21.17578125 6.05859375 C-18.50954404 4.761376 -16.12187105 4.45801856 -13.1875 4.0625 C-8.31040668 3.31631069 -4.40036191 2.20018096 0 0 Z " fill="#BAD9E2" transform="translate(150,192)"/>
<path d="M0 0 C2.3125 -0.3125 2.3125 -0.3125 5 0 C6.0526511 1.63392272 7.04384657 3.30779777 8 5 C9.28464036 6.68823374 10.59819869 8.35479301 11.9375 10 C12.60652344 10.825 13.27554688 11.65 13.96484375 12.5 C15.37079233 14.22707695 16.79104088 15.94257595 18.22265625 17.6484375 C20 20 20 20 20.5 22.625 C20 25 20 25 18.328125 26.66796875 C15.32859043 28.38414541 13.64285931 28.131803 10.25 27.6875 C9.26515625 27.56761719 8.2803125 27.44773438 7.265625 27.32421875 C6.51796875 27.21722656 5.7703125 27.11023438 5 27 C8.63616656 25.0210244 11.88425629 24.4748935 16 24 C15.67 21.69 15.34 19.38 15 17 C14.34 17 13.68 17 13 17 C13 16.34 13 15.68 13 15 C11.35 14.67 9.7 14.34 8 14 C8 13.34 8 12.68 8 12 C7.01 11.67 6.02 11.34 5 11 C4.34 7.7 3.68 4.4 3 1 C2.01 0.67 1.02 0.34 0 0 Z " fill="#4E9EBC" transform="translate(103,206)"/>
<path d="M0 0 C2.375 0.3125 2.375 0.3125 5 1 C5.66 1.99 6.32 2.98 7 4 C7.99 4.33 8.98 4.66 10 5 C10 5.66 10 6.32 10 7 C10.52851563 7.25910156 11.05703125 7.51820313 11.6015625 7.78515625 C13.40461149 8.69842699 15.18810016 9.650477 16.9609375 10.62109375 C27.60775853 16.28559235 37.99754811 19.02966736 50.109375 19.69140625 C52 20 52 20 54 22 C42.31327532 25.01521899 28.510137 20.13976256 18 15 C14.44946971 12.89783181 11.21214823 10.58354779 8 8 C6.96875 7.236875 5.9375 6.47375 4.875 5.6875 C4.25625 5.130625 3.6375 4.57375 3 4 C3 3.34 3 2.68 3 2 C2.01 1.67 1.02 1.34 0 1 C0 0.67 0 0.34 0 0 Z " fill="#B5CDD7" transform="translate(16,187)"/>
<path d="M0 0 C4.91066799 3.95156023 9.04886044 8.10723243 12.9375 13.0625 C13.44821045 13.70791748 13.9589209 14.35333496 14.48510742 15.01831055 C19.12178304 20.97787743 23.66982103 27.2022061 27 34 C26.67 34.66 26.34 35.32 26 36 C25.34 36 24.68 36 24 36 C23.67 35.01 23.34 34.02 23 33 C22.505 32.525625 22.01 32.05125 21.5 31.5625 C20 30 20 30 19.5 27.875 C19.335 27.25625 19.17 26.6375 19 26 C18.01 25.67 17.02 25.34 16 25 C15.6278958 23.67696283 15.29369827 22.34262065 15 21 C14.34 20.67 13.68 20.34 13 20 C12.67 19.01 12.34 18.02 12 17 C11.319375 16.319375 10.63875 15.63875 9.9375 14.9375 C9.298125 14.298125 8.65875 13.65875 8 13 C8 12.34 8 11.68 8 11 C6.68 10.34 5.36 9.68 4 9 C4 8.34 4 7.68 4 7 C2.68 6.34 1.36 5.68 0 5 C0 3.35 0 1.7 0 0 Z " fill="#589FC0" transform="translate(253,45)"/>
<path d="M0 0 C2.97 0.495 2.97 0.495 6 1 C6 2.32 6 3.64 6 5 C6.99 4.67 7.98 4.34 9 4 C9 4.66 9 5.32 9 6 C9.99 6.33 10.98 6.66 12 7 C12 12.94 12 18.88 12 25 C10.35 24.67 8.7 24.34 7 24 C7.03480469 23.1646875 7.03480469 23.1646875 7.0703125 22.3125 C7.28816472 13.10046331 5.74933478 7.26231761 0 0 Z " fill="#B1E1EF" transform="translate(248,147)"/>
<path d="M0 0 C0 0.33 0 0.66 0 1 C-1.65 1 -3.3 1 -5 1 C-5.495 -0.485 -5.495 -0.485 -6 -2 C-6.99 -1.67 -7.98 -1.34 -9 -1 C-10.90234375 -1.55859375 -10.90234375 -1.55859375 -12.9375 -2.4375 C-16.06552798 -3.78152743 -17.39665325 -4 -21 -4 C-21.495 -4.99 -21.495 -4.99 -22 -6 C-24.93718767 -6.19461488 -27.87449932 -6.38097593 -30.8125 -6.5625 C-32.06256836 -6.64661133 -32.06256836 -6.64661133 -33.33789062 -6.73242188 C-34.14033203 -6.78076172 -34.94277344 -6.82910156 -35.76953125 -6.87890625 C-36.87711792 -6.94960327 -36.87711792 -6.94960327 -38.00708008 -7.02172852 C-40.21188792 -7.09929638 -40.21188792 -7.09929638 -43 -6 C-45.05893621 -5.77674186 -47.12233653 -5.59294241 -49.1875 -5.4375 C-50.81751953 -5.31181641 -50.81751953 -5.31181641 -52.48046875 -5.18359375 C-53.72763672 -5.09271484 -53.72763672 -5.09271484 -55 -5 C-55 -5.33 -55 -5.66 -55 -6 C-36.11742025 -12.33188303 -17.19151443 -9.67022687 0 0 Z " fill="#95E2FB" transform="translate(143,187)"/>
<path d="M0 0 C0.33 0 0.66 0 1 0 C0.98428955 0.99330322 0.9685791 1.98660645 0.95239258 3.01000977 C0.89779801 6.72053818 0.86354344 10.43103158 0.83520508 14.1418457 C0.82018534 15.74314356 0.79976337 17.34440075 0.77368164 18.94555664 C0.73699562 21.25677571 0.72020565 23.56744756 0.70703125 25.87890625 C0.69154739 26.58648575 0.67606354 27.29406525 0.66011047 28.02308655 C0.65839571 33.17037672 1.84806764 36.4495597 4 41 C4.29296875 43.87109375 4.29296875 43.87109375 4.1875 46.4375 C4.16042969 47.30246094 4.13335938 48.16742188 4.10546875 49.05859375 C4.07066406 49.69925781 4.03585938 50.33992188 4 51 C2.40975606 48.6146341 1.42595947 46.8113165 0.4375 44.1875 C0.18871094 43.54167969 -0.06007812 42.89585937 -0.31640625 42.23046875 C-2.43542042 35.31642821 -2.18350327 28.27914108 -2.1875 21.125 C-2.19974609 19.97902344 -2.21199219 18.83304688 -2.22460938 17.65234375 C-2.23539653 11.40298642 -1.85762548 5.97670808 0 0 Z " fill="#4A8FAA" transform="translate(2,120)"/>
<path d="M0 0 C0.66 0.33 1.32 0.66 2 1 C1.690625 1.9075 1.38125 2.815 1.0625 3.75 C-0.47689013 9.04506536 -0.65820302 14.52225363 -1 20 C-0.34 20 0.32 20 1 20 C1.69608034 22.62299801 2.38215382 25.2479207 3.0625 27.875 C3.26166016 28.62136719 3.46082031 29.36773437 3.66601562 30.13671875 C5.11328125 35.7734375 5.11328125 35.7734375 4 38 C3.67 36.35 3.34 34.7 3 33 C2.01 33 1.02 33 0 33 C-4.71688269 25.45298769 -3.84606551 13.24710974 -2.0625 4.875 C-1.17330211 1.17330211 -1.17330211 1.17330211 0 0 Z " fill="#389ECA" transform="translate(199,147)"/>
<path d="M0 0 C0.495 0.99 0.495 0.99 1 2 C-12.2 2.33 -25.4 2.66 -39 3 C-39 2.34 -39 1.68 -39 1 C-26.0243629 -0.8873654 -13.03991817 -2.21015562 0 0 Z " fill="#75ABC2" transform="translate(164,1)"/>
<path d="M0 0 C0.66 0.33 1.32 0.66 2 1 C1.375 2.875 1.375 2.875 0 5 C-2 5.66666667 -4 6.33333333 -6 7 C-6.6837045 8.32467746 -7.34964186 9.65863633 -8 11 C-13.14285714 14 -13.14285714 14 -16 14 C-16.04125 14.61875 -16.0825 15.2375 -16.125 15.875 C-17 18 -17 18 -19.875 19.25 C-23 20 -23 20 -26 20 C-18.79746312 13.12263408 -11.28450628 7.49589266 -3 2 C-2.01 1.34 -1.02 0.68 0 0 Z " fill="#5BA6C4" transform="translate(70,22)"/>
<path d="M0 0 C2.97 0 5.94 0 9 0 C11.17252917 4.34505834 11.266921 7.48494083 11.1875 12.1875 C11.18685547 12.92419922 11.18621094 13.66089844 11.18554688 14.41992188 C11.14050904 19.85949096 11.14050904 19.85949096 10 21 C9.855625 22.155 9.71125 23.31 9.5625 24.5 C9.376875 25.655 9.19125 26.81 9 28 C8.34 28.33 7.68 28.66 7 29 C7.0721875 28.34515625 7.144375 27.6903125 7.21875 27.015625 C8.29182947 16.52058439 8.29182947 16.52058439 8 6 C7.34 5.34 6.68 4.68 6 4 C3.09324817 3.97831363 3.09324817 3.97831363 -0.125 4.375 C-1.22070312 4.48585937 -2.31640625 4.59671875 -3.4453125 4.7109375 C-4.28835937 4.80632812 -5.13140625 4.90171875 -6 5 C-6 4.34 -6 3.68 -6 3 C-4.02 2.34 -2.04 1.68 0 1 C0 0.67 0 0.34 0 0 Z " fill="#6BA5BD" transform="translate(244,195)"/>
<path d="M0 0 C0.103125 0.639375 0.20625 1.27875 0.3125 1.9375 C0.539375 2.618125 0.76625 3.29875 1 4 C1.99 4.33 2.98 4.66 4 5 C4.99 6.485 4.99 6.485 6 8 C6.99 8 7.98 8 9 8 C9.144375 8.78375 9.28875 9.5675 9.4375 10.375 C10.69900253 13.14651912 10.69900253 13.14651912 13.03125 13.671875 C14.61656861 13.97040902 16.2099327 14.2293484 17.80859375 14.4453125 C20.35395917 15.08959394 21.33338994 16.01721632 23 18 C18.6822542 17.49202991 14.96697886 16.80317221 11 15 C11 15.66 11 16.32 11 17 C7.21442819 15.51251262 5.58432807 13.44650134 3.3125 10.125 C2.71050781 9.26132813 2.10851562 8.39765625 1.48828125 7.5078125 C0.14833295 5.24994686 -0.65760876 3.58824566 -1 1 C-0.67 0.67 -0.34 0.34 0 0 Z " fill="#49AAD2" transform="translate(7,170)"/>
<path d="M0 0 C0.33 0 0.66 0 1 0 C1 3.66666667 1 7.33333333 1 11 C1.33 11 1.66 11 2 11 C2.30232427 16.91123506 1.21257683 21.88557498 -0.375 27.5625 C-0.59671875 28.38685547 -0.8184375 29.21121094 -1.046875 30.06054688 C-2.23259692 34.42330608 -3.51786033 38.72672814 -5 43 C-5.33 43 -5.66 43 -6 43 C-6.25027596 36.49282503 -6.25027596 36.49282503 -5.02734375 34.0847168 C-3.80254649 31.59932141 -3.62629179 29.65335163 -3.4375 26.89453125 C-3.36273438 25.91033203 -3.28796875 24.92613281 -3.2109375 23.91210938 C-3.14132812 22.88923828 -3.07171875 21.86636719 -3 20.8125 C-2.5051457 13.67835047 -1.73151289 6.94769548 0 0 Z " fill="#3897C2" transform="translate(293,159)"/>
<path d="M0 0 C7.6848737 3.25395553 13.77818022 7.06793216 17.16796875 14.91796875 C13.91829097 13.95184833 12.48836427 13.46124811 10.73046875 10.48046875 C8.74095278 7.21766255 6.62970568 6.37959101 3.16796875 4.91796875 C3.16796875 4.25796875 3.16796875 3.59796875 3.16796875 2.91796875 C2.16830078 2.84449219 2.16830078 2.84449219 1.1484375 2.76953125 C-5.60960924 2.22132606 -12.18392039 1.24244732 -18.83203125 -0.08203125 C-12.50259775 -3.58906836 -6.50432474 -2.3845459 0 0 Z " fill="#90DDF8" transform="translate(240.83203125,132.08203125)"/>
<path d="M0 0 C4.69562266 -0.04977421 9.39108863 -0.08589521 14.08691406 -0.10986328 C15.68134235 -0.11986475 17.27575257 -0.13347031 18.87011719 -0.15087891 C21.17387376 -0.17538695 23.47738595 -0.18654176 25.78125 -0.1953125 C26.48366821 -0.20563507 27.18608643 -0.21595764 27.90979004 -0.22659302 C32.9032247 -0.22770214 37.22302054 0.50210014 42 2 C42.495 2.99 42.495 2.99 43 4 C41.56260487 4.02712066 40.12506137 4.04645067 38.6875 4.0625 C37.48673828 4.07990234 37.48673828 4.07990234 36.26171875 4.09765625 C34 4 34 4 31 3 C28.89809395 2.87257374 26.79279992 2.79816404 24.6875 2.75390625 C22.82738281 2.70459961 22.82738281 2.70459961 20.9296875 2.65429688 C18.30998412 2.59310102 15.69018664 2.53580897 13.0703125 2.48242188 C11.83023438 2.44826172 10.59015625 2.41410156 9.3125 2.37890625 C7.60513672 2.34132202 7.60513672 2.34132202 5.86328125 2.30297852 C3 2 3 2 0 0 Z " fill="#349ECA" transform="translate(132,3)"/>
<path d="M0 0 C-3.34235213 1.98777776 -6.08148701 2.30549745 -9.9375 2.5 C-14.12482139 2.71174824 -17.13569167 3.44181116 -21 5 C-23.45703125 5.1953125 -23.45703125 5.1953125 -25.8125 5.125 C-26.60269531 5.10695313 -27.39289063 5.08890625 -28.20703125 5.0703125 C-28.79871094 5.04710937 -29.39039062 5.02390625 -30 5 C-30 4.34 -30 3.68 -30 3 C-19.52318997 -1.24538563 -11.04666287 -1.21711735 0 0 Z " fill="#4FA2C3" transform="translate(135,4)"/>
<path d="M0 0 C2.39073445 3.82517513 2.55966552 7.59665524 3 12 C3.66 12 4.32 12 5 12 C5.0495439 18.15640091 5.08578791 24.31268499 5.10986328 30.46923828 C5.119903 32.56235781 5.13353753 34.65546338 5.15087891 36.74853516 C5.17521632 39.76207939 5.18650357 42.7754377 5.1953125 45.7890625 C5.20563507 46.72054108 5.21595764 47.65201965 5.22659302 48.61172485 C5.22742941 53.48662371 4.91370333 57.42432871 3 62 C1.8102606 58.43078179 2.35891033 56.68191184 3 53 C3.11381749 50.37271296 3.18717605 47.77189433 3.203125 45.14453125 C3.20882507 44.40224777 3.21452515 43.65996429 3.22039795 42.89518738 C3.22980306 41.32947189 3.23636397 39.763737 3.24023438 38.19799805 C3.24990088 35.83671303 3.28094992 33.47631426 3.3125 31.11523438 C3.36493152 23.43383974 3.15277651 16.55564776 0.66577148 9.18896484 C-0.29701445 6.02345744 -0.21874113 3.28111701 0 0 Z " fill="#3A8AAD" transform="translate(290,114)"/>
<path d="M0 0 C2.42945561 3.64418341 2.0828781 4.92923364 1.625 9.1875 C1.51414063 10.27417969 1.40328125 11.36085937 1.2890625 12.48046875 C1.19367188 13.31191406 1.09828125 14.14335937 1 15 C2.98 15 4.96 15 7 15 C7 14.34 7 13.68 7 13 C8.98 12.67 10.96 12.34 13 12 C9.6207338 15.77682693 7.04900708 18.03316886 2 19 C-0.18359375 18.03515625 -0.18359375 18.03515625 -2 17 C-2.22084624 10.90218999 -2.01167675 5.78357065 0 0 Z " fill="#5C9DB5" transform="translate(250,227)"/>
<path d="M0 0 C1.26475765 2.10324512 2.05489581 3.4188204 1.8203125 5.90234375 C-0.69025945 13.25070322 -4.78932627 19.5289646 -9 26 C-9.625 24.125 -9.625 24.125 -10 22 C-9.34 21.34 -8.68 20.68 -8 20 C-7.53993654 17.79749008 -7.53993654 17.79749008 -7.375 15.375 C-7.26285156 14.14910156 -7.26285156 14.14910156 -7.1484375 12.8984375 C-7.09945313 12.27195313 -7.05046875 11.64546875 -7 11 C-6.01 10.67 -5.02 10.34 -4 10 C-2.06031732 6.91932751 -1.09860734 3.45276592 0 0 Z " fill="#56A2C2" transform="translate(285,199)"/>
<path d="M0 0 C0.33 0.66 0.66 1.32 1 2 C0.109375 3.6015625 0.109375 3.6015625 -1.25 5.625 C-5.1270032 12.20186615 -5.87755665 19.5626721 -7 27 C-7.66 27 -8.32 27 -9 27 C-9.90216608 17.57737654 -8.12706198 10.97127154 -3 3 C-1.30078125 1.16015625 -1.30078125 1.16015625 0 0 Z " fill="#90DEF8" transform="translate(207,140)"/>
<path d="M0 0 C0.80179688 0.00451172 1.60359375 0.00902344 2.4296875 0.01367188 C4.41149006 0.02546832 6.39325433 0.04340395 8.375 0.0625 C8.375 0.3925 8.375 0.7225 8.375 1.0625 C3.425 1.0625 -1.525 1.0625 -6.625 1.0625 C-5.92055353 4.34432137 -5.92055353 4.34432137 -2.6875 5.5625 C-1.676875 6.0575 -0.66625 6.5525 0.375 7.0625 C1.365 8.5475 1.365 8.5475 2.375 10.0625 C2.045 11.0525 1.715 12.0425 1.375 13.0625 C-0.26012918 12.0156553 -1.88279111 10.94932149 -3.5 9.875 C-4.40492187 9.28332031 -5.30984375 8.69164062 -6.2421875 8.08203125 C-8.84610124 5.87510764 -9.65458682 4.29163351 -10.625 1.0625 C-7.31505287 -0.59247356 -3.63377 -0.03834335 0 0 Z " fill="#5FA6C3" transform="translate(78.625,207.9375)"/>
<path d="M0 0 C0 0.99 0 1.98 0 3 C-10.89 3 -21.78 3 -33 3 C-33.33 3.66 -33.66 4.32 -34 5 C-34 4.01 -34 3.02 -34 2 C-30.3965669 1.65841653 -26.79216548 1.32830184 -23.1875 1 C-22.18267578 0.90460938 -21.17785156 0.80921875 -20.14257812 0.7109375 C-13.40797288 0.10460648 -6.76066746 -0.12017481 0 0 Z " fill="#3B9FCA" transform="translate(106,207)"/>
<path d="M0 0 C1.8253125 0.680625 1.8253125 0.680625 3.6875 1.375 C15.73249788 5.33397605 28.44189964 5.49608467 41 6 C41 6.33 41 6.66 41 7 C37.08339894 7.05906707 33.16691543 7.09394858 29.25 7.125 C27.61224609 7.15013672 27.61224609 7.15013672 25.94140625 7.17578125 C5.6707772 7.2957258 5.6707772 7.2957258 0 2 C0 1.34 0 0.68 0 0 Z " fill="#93DCF5" transform="translate(17,184)"/>
<path d="M0 0 C0.61875 0.268125 1.2375 0.53625 1.875 0.8125 C2.205 1.8025 2.535 2.7925 2.875 3.8125 C3.535 3.8125 4.195 3.8125 4.875 3.8125 C6.4385348 6.93956959 6.27458487 10.39232443 5.875 13.8125 C4.885 15.2975 4.885 15.2975 3.875 16.8125 C3.215 16.8125 2.555 16.8125 1.875 16.8125 C1.875 17.4725 1.875 18.1325 1.875 18.8125 C-1.425 18.8125 -4.725 18.8125 -8.125 18.8125 C-8.125 17.8225 -8.125 16.8325 -8.125 15.8125 C-7.0525 16.06 -5.98 16.3075 -4.875 16.5625 C-1.17085977 17.18263887 -1.17085977 17.18263887 1.3125 15.25 C3.28741898 12.16912639 3.33455739 10.41236622 2.875 6.8125 C0.47063974 3.20595961 -1.07179607 2.95797068 -5.125 1.8125 C-2.125 -0.1875 -2.125 -0.1875 0 0 Z " fill="#6AA5C0" transform="translate(134.125,143.1875)"/>
<path d="M0 0 C5.78461538 4.06153846 5.78461538 4.06153846 6.875 8.8125 C6.91625 9.864375 6.9575 10.91625 7 12 C4.63310671 14.19219402 3.48272731 14.9871902 0.203125 15.07421875 C-1.25867188 14.88279297 -1.25867188 14.88279297 -2.75 14.6875 C-3.73484375 14.56761719 -4.7196875 14.44773438 -5.734375 14.32421875 C-6.48203125 14.21722656 -7.2296875 14.11023438 -8 14 C-4.36383344 12.0210244 -1.11574371 11.4748935 3 11 C2.67 8.69 2.34 6.38 2 4 C1.34 4 0.68 4 0 4 C0 2.68 0 1.36 0 0 Z " fill="#7BA9C4" transform="translate(116,219)"/>
<path d="M0 0 C6.38983051 -0.49152542 6.38983051 -0.49152542 9.25 1.8125 C9.8275 2.534375 10.405 3.25625 11 4 C11.495 4.495 11.99 4.99 12.5 5.5 C14.33333333 7.33333333 16.16666667 9.16666667 18 11 C17.01 11.495 17.01 11.495 16 12 C13.3984375 10.63671875 13.3984375 10.63671875 10.375 8.6875 C9.37210938 8.05199219 8.36921875 7.41648438 7.3359375 6.76171875 C6.56507812 6.18035156 5.79421875 5.59898437 5 5 C5 4.34 5 3.68 5 3 C4.360625 2.87625 3.72125 2.7525 3.0625 2.625 C2.381875 2.41875 1.70125 2.2125 1 2 C0.67 1.34 0.34 0.68 0 0 Z " fill="#AFDEEA" transform="translate(21,189)"/>
<path d="M0 0 C1 2 1 2 0.0625 5.125 C-0.288125 6.07375 -0.63875 7.0225 -1 8 C-2.65 8.33 -4.3 8.66 -6 9 C-6.33 10.65 -6.66 12.3 -7 14 C-8.98 14.66 -10.96 15.32 -13 16 C-11.3383196 11.87582937 -8.37661982 8.93445961 -5.375 5.75 C-4.859375 5.19570313 -4.34375 4.64140625 -3.8125 4.0703125 C-2.54574965 2.7097288 -1.27342185 1.35434163 0 0 Z " fill="#6AADC9" transform="translate(43,43)"/>
<path d="M0 0 C1.50433594 0.29197266 1.50433594 0.29197266 3.0390625 0.58984375 C4.19535156 0.82380859 4.19535156 0.82380859 5.375 1.0625 C5.705 2.0525 6.035 3.0425 6.375 4.0625 C7.798125 4.000625 7.798125 4.000625 9.25 3.9375 C12.375 4.0625 12.375 4.0625 14.375 6.0625 C7.09060888 8.26475778 1.01746282 5.21186349 -5.625 2.0625 C-6.285 1.4025 -6.945 0.7425 -7.625 0.0625 C-4.81015955 -1.34492022 -3.05563887 -0.60402164 0 0 Z " fill="#3F9BBC" transform="translate(96.625,224.9375)"/>
<path d="M0 0 C2.46875 1.3984375 2.46875 1.3984375 5 4 C5.71361981 7.21884869 5.60778295 10.34251922 5.5 13.625 C5.50257813 14.49640625 5.50515625 15.3678125 5.5078125 16.265625 C5.43409299 21.02790546 5.43409299 21.02790546 5 23 C4.01 23.66 3.02 24.32 2 25 C2.03480469 23.2984375 2.03480469 23.2984375 2.0703125 21.5625 C2.08908814 20.04167332 2.1072864 18.52083943 2.125 17 C2.14175781 16.25621094 2.15851563 15.51242188 2.17578125 14.74609375 C2.22144715 9.49451557 1.45712451 5.0483054 0 0 Z " fill="#3BA3CF" transform="translate(259,148)"/>
<path d="M0 0 C0 0.66 0 1.32 0 2 C-1.72718516 2.96189997 -3.45684058 3.91936508 -5.1875 4.875 C-6.15042969 5.40867188 -7.11335937 5.94234375 -8.10546875 6.4921875 C-10.71350033 7.85075726 -13.20585867 9.08309697 -16 10 C-16.66 9.67 -17.32 9.34 -18 9 C-5.63248503 -0.48278443 -5.63248503 -0.48278443 0 0 Z " fill="#71A7C1" transform="translate(249,175)"/>
<path d="M0 0 C0.33 1.32 0.66 2.64 1 4 C-2.05191165 6.67835203 -3.89051401 7.37471451 -7.9375 7.25 C-8.81019531 7.22421875 -9.68289062 7.1984375 -10.58203125 7.171875 C-13.12258014 6.99128671 -15.53663979 6.65689606 -18 6 C-18 5.34 -18 4.68 -18 4 C-12.06 3.67 -6.12 3.34 0 3 C0 2.01 0 1.02 0 0 Z " fill="#70ACC2" transform="translate(215,204)"/>
<path d="M0 0 C0.33 0.99 0.66 1.98 1 3 C0.67 3.66 0.34 4.32 0 5 C-0.66 5 -1.32 5 -2 5 C-1.34 6.98 -0.68 8.96 0 11 C1.65 11.33 3.3 11.66 5 12 C5 11.34 5 10.68 5 10 C8.465 9.505 8.465 9.505 12 9 C7.73688282 13.12989477 4.71241466 13.61271765 -1 14 C-2.5625 12.375 -2.5625 12.375 -4 10 C-3.82213241 5.73117787 -2.82066016 3.18857235 0 0 Z " fill="#73A2B9" transform="translate(226,191)"/>
<path d="M0 0 C0.33 0 0.66 0 1 0 C0.88566637 2.25056722 0.75813564 4.50046674 0.625 6.75 C0.55539062 8.00296875 0.48578125 9.2559375 0.4140625 10.546875 C0.03610325 13.69891256 -0.50981326 15.29903653 -2 18 C-2.44500285 20.12593058 -2.44500285 20.12593058 -2.625 22.25 C-2.74875 23.4875 -2.8725 24.725 -3 26 C-6.26560264 20.83863553 -4.25936109 15.62927525 -3 10 C-2.09474544 6.63262797 -1.09820246 3.30925009 0 0 Z " fill="#3B98C6" transform="translate(290,177)"/>
<path d="M0 0 C7.39166755 -0.30170072 14.15713847 -0.14171815 20 5 C19.67 5.66 19.34 6.32 19 7 C18.47792969 6.72285156 17.95585937 6.44570312 17.41796875 6.16015625 C11.28522751 3.14211722 5.79930346 2.25417957 -1 2 C-0.67 1.34 -0.34 0.68 0 0 Z " fill="#ACC4D0" transform="translate(231,141)"/>
<path d="M0 0 C2.33223736 3.49835604 3.15245549 6.91404733 4.125 10.9375 C4.30675781 11.65357422 4.48851562 12.36964844 4.67578125 13.10742188 C5.52085109 16.53535554 6 19.44772031 6 23 C5.34 23 4.68 23 4 23 C3.322781 20.48159185 2.65808826 17.96091276 2 15.4375 C1.80921875 14.73302734 1.6184375 14.02855469 1.421875 13.30273438 C0.24165914 8.72939791 -0.19856973 4.72223635 0 0 Z " fill="#71A6BE" transform="translate(289,103)"/>
<path d="M0 0 C1.953125 0.70703125 1.953125 0.70703125 4.25 1.8125 C7.78011354 3.46064671 11.26952372 4.85216114 15 6 C15 6.33 15 6.66 15 7 C9.76884607 7.21544006 5.56214697 6.52370193 0.5625 5 C-0.67371094 4.62875 -1.90992188 4.2575 -3.18359375 3.875 C-4.11300781 3.58625 -5.04242188 3.2975 -6 3 C-4 2 -2 1 0 0 Z " fill="#6FB1CB" transform="translate(177,201)"/>
<path d="M0 0 C2.97 0 5.94 0 9 0 C9.33 1.32 9.66 2.64 10 4 C9.34 4.66 8.68 5.32 8 6 C7.34 5.34 6.68 4.68 6 4 C3.09324817 3.97831363 3.09324817 3.97831363 -0.125 4.375 C-1.22070312 4.48585937 -2.31640625 4.59671875 -3.4453125 4.7109375 C-4.28835937 4.80632812 -5.13140625 4.90171875 -6 5 C-6 4.34 -6 3.68 -6 3 C-4.02 2.34 -2.04 1.68 0 1 C0 0.67 0 0.34 0 0 Z " fill="#49A1C2" transform="translate(244,195)"/>
<path d="M0 0 C2.4375 0.625 2.4375 0.625 5 2 C6.0704232 5.59356359 6.19105377 7.4268387 5 11 C3.35 11.33 1.7 11.66 0 12 C0.33 11.34 0.66 10.68 1 10 C1.66 10 2.32 10 3 10 C2.505 8.906875 2.01 7.81375 1.5 6.6875 C0 3 0 3 0 0 Z " fill="#3899C1" transform="translate(210,196)"/>
<path d="M0 0 C0 0.33 0 0.66 0 1 C-1.12019531 1.06058594 -2.24039063 1.12117187 -3.39453125 1.18359375 C-4.86719984 1.26801424 -6.33985544 1.35266149 -7.8125 1.4375 C-8.55048828 1.47681641 -9.28847656 1.51613281 -10.04882812 1.55664062 C-13.23071342 1.74381035 -15.96162378 1.98720793 -19 3 C-21.05893621 3.22325814 -23.12233653 3.40705759 -25.1875 3.5625 C-26.81751953 3.68818359 -26.81751953 3.68818359 -28.48046875 3.81640625 C-29.72763672 3.90728516 -29.72763672 3.90728516 -31 4 C-31 3.67 -31 3.34 -31 3 C-20.65608586 -0.46861792 -10.75820351 -0.30384048 0 0 Z " fill="#7AD0EF" transform="translate(119,178)"/>
<path d="M0 0 C0.103125 0.639375 0.20625 1.27875 0.3125 1.9375 C0.539375 2.618125 0.76625 3.29875 1 4 C1.99 4.33 2.98 4.66 4 5 C9 10.34883721 9 10.34883721 9 14 C7.20703125 13.8046875 7.20703125 13.8046875 5 13 C3.26171875 10.8203125 3.26171875 10.8203125 1.6875 8.125 C1.15511719 7.24070313 0.62273438 6.35640625 0.07421875 5.4453125 C-1 3 -1 3 0 0 Z " fill="#66A0BA" transform="translate(7,170)"/>
<path d="M0 0 C1.485 0.99 1.485 0.99 3 2 C3.6875 5.625 3.6875 5.625 4 9 C4.66 9 5.32 9 6 9 C7.4783226 11.95664519 7.06032783 14.74229737 7 18 C6.34 17.67 5.68 17.34 5 17 C5 16.01 5 15.02 5 14 C4.34 14 3.68 14 3 14 C0.88838269 4.58997722 0.88838269 4.58997722 0 0 Z " fill="#3998C4" transform="translate(282,92)"/>
<path d="M0 0 C4.6889493 0.55619669 8.19924267 1.88182673 12.375 4.0625 C13.43460938 4.61035156 14.49421875 5.15820312 15.5859375 5.72265625 C16.38257813 6.14417969 17.17921875 6.56570312 18 7 C13.82604157 8.29917911 11.105618 7.47182532 7 6 C6.67 5.34 6.34 4.68 6 4 C4.02477154 2.95191959 2.02518491 1.9479589 0 1 C0 0.67 0 0.34 0 0 Z " fill="#64A9C3" transform="translate(198,10)"/>
<path d="M0 0 C-2.38275666 2.79033346 -4.5022843 3.72983292 -8 4.75 C-8.86625 5.01296875 -9.7325 5.2759375 -10.625 5.546875 C-13 6 -13 6 -16 5 C-14.68 4.67 -13.36 4.34 -12 4 C-12 3.34 -12 2.68 -12 2 C-8.09971775 -0.60018816 -4.52565431 -0.15085514 0 0 Z " fill="#409EC3" transform="translate(261,173)"/>
<path d="M0 0 C0.33 0.99 0.66 1.98 1 3 C0.2884375 3.6496875 0.2884375 3.6496875 -0.4375 4.3125 C-2.23686957 6.02309613 -2.23686957 6.02309613 -3 9 C-3.66 9 -4.32 9 -5 9 C-5.33 11.31 -5.66 13.62 -6 16 C-6.66 16 -7.32 16 -8 16 C-8 13.36 -8 10.72 -8 8 C-7.38125 7.9175 -6.7625 7.835 -6.125 7.75 C-3.84957521 7.20076457 -3.84957521 7.20076457 -2.875 5.125 C-2.58625 4.42375 -2.2975 3.7225 -2 3 C-1.34 2.01 -0.68 1.02 0 0 Z " fill="#459BC1" transform="translate(20,78)"/>
<path d="M0 0 C0 2.95274099 -0.43891831 4.49058403 -1.5 7.1875 C-1.7784375 7.90292969 -2.056875 8.61835938 -2.34375 9.35546875 C-2.5603125 9.89816406 -2.776875 10.44085938 -3 11 C-4.32 10.67 -5.64 10.34 -7 10 C-5.76075855 5.04303419 -4.21422242 2.88341534 0 0 Z " fill="#4A9CBD" transform="translate(233,184)"/>
<path d="M0 0 C6.86515862 -0.26404456 13.25846717 0.74158054 20 2 C20 2.33 20 2.66 20 3 C15.38 3.33 10.76 3.66 6 4 C6 3.34 6 2.68 6 2 C3.03 1.505 3.03 1.505 0 1 C0 0.67 0 0.34 0 0 Z " fill="#3F95BB" transform="translate(186,205)"/>
<path d="M0 0 C0.66 1.32 1.32 2.64 2 4 C-0.31 6.64 -2.62 9.28 -5 12 C-6 8 -6 8 -4.6875 5.75 C-3.8521875 4.88375 -3.8521875 4.88375 -3 4 C-2.34 4 -1.68 4 -1 4 C-0.67 2.68 -0.34 1.36 0 0 Z " fill="#69ACC2" transform="translate(273,223)"/>
<path d="M0 0 C1.9375 0.3125 1.9375 0.3125 4 1 C5.00496852 4.01490557 5.10335303 6.04181692 5.0625 9.1875 C5.05347656 10.08855469 5.04445313 10.98960937 5.03515625 11.91796875 C5.02355469 12.60503906 5.01195312 13.29210937 5 14 C3.37723842 11.56585763 2.38255208 9.68680554 1.375 7 C0.98441406 5.9790625 0.98441406 5.9790625 0.5859375 4.9375 C0 3 0 3 0 0 Z " fill="#5FA7C0" transform="translate(1,157)"/>
<path d="M0 0 C2.97 0.495 2.97 0.495 6 1 C6.33 3.31 6.66 5.62 7 8 C7.66 8 8.32 8 9 8 C8.67 10.31 8.34 12.62 8 15 C7.67 15 7.34 15 7 15 C6.773125 13.824375 6.54625 12.64875 6.3125 11.4375 C5.16992391 6.75877601 2.96959263 3.75106438 0 0 Z " fill="#D1DFE2" transform="translate(248,147)"/>
<path d="M0 0 C2 2 2 2 2.1953125 5.6953125 C2.182009 7.17200108 2.15814835 8.64862358 2.125 10.125 C2.11597656 10.87910156 2.10695313 11.63320312 2.09765625 12.41015625 C2.0740687 14.27357254 2.03819719 16.13682593 2 18 C1.34 18 0.68 18 0 18 C-0.02705729 16.22925083 -0.04642195 14.45838289 -0.0625 12.6875 C-0.07410156 11.70136719 -0.08570313 10.71523437 -0.09765625 9.69921875 C0 7 0 7 1 4 C0.34 4 -0.32 4 -1 4 C-0.67 2.68 -0.34 1.36 0 0 Z " fill="#ADCED5" transform="translate(256,151)"/>
<path d="M0 0 C2.39073445 3.82517513 2.55966552 7.59665524 3 12 C3.66 12 4.32 12 5 12 C5 13.98 5 15.96 5 18 C4.34 18 3.68 18 3 18 C1.14256832 11.88595404 -0.42765417 6.41481258 0 0 Z " fill="#3D95BB" transform="translate(290,114)"/>
<path d="M0 0 C0.556875 0.226875 1.11375 0.45375 1.6875 0.6875 C1.048125 0.97625 0.40875 1.265 -0.25 1.5625 C-2.46456079 2.51573451 -2.46456079 2.51573451 -3.3125 4.6875 C-8.62019231 7.6875 -8.62019231 7.6875 -12.3125 7.6875 C-4.46923575 -0.60395078 -4.46923575 -0.60395078 0 0 Z " fill="#90DFF9" transform="translate(220.3125,132.3125)"/>
<path d="M0 0 C-0.33 0.99 -0.66 1.98 -1 3 C-5.65537393 3.83796731 -9.37078475 4.0161692 -14 3 C-9.65005187 0.39003112 -4.99823188 0 0 0 Z " fill="#6195B4" transform="translate(122,230)"/>
<path d="M0 0 C1.12894876 0.93274109 2.25300876 1.87140122 3.375 2.8125 C4.00148438 3.33457031 4.62796875 3.85664062 5.2734375 4.39453125 C7 6 7 6 9 9 C7.35 9 5.7 9 4 9 C4 8.34 4 7.68 4 7 C2.68 6.34 1.36 5.68 0 5 C0 3.35 0 1.7 0 0 Z " fill="#60A7CA" transform="translate(253,45)"/>
<path d="M0 0 C5.01202555 2.98334854 8.38748484 6.43951988 12 11 C11.01 11 10.02 11 9 11 C9 10.34 9 9.68 9 9 C7.68 9 6.36 9 5 9 C4.731875 8.195625 4.46375 7.39125 4.1875 6.5625 C3.795625 5.716875 3.40375 4.87125 3 4 C2.01 3.67 1.02 3.34 0 3 C0 2.01 0 1.02 0 0 Z " fill="#6AA8CC" transform="translate(241,34)"/>
<path d="M0 0 C0.66 0.33 1.32 0.66 2 1 C-0.20529801 6.63576159 -0.20529801 6.63576159 -4 8.375 C-7 9 -7 9 -10 9 C-6.7 6.03 -3.4 3.06 0 0 Z " fill="#77B5CF" transform="translate(54,33)"/>
<path d="M0 0 C4.81033104 2.54664585 8.32442148 4.99027798 12 9 C10.35 8.67 8.7 8.34 7 8 C7 7.34 7 6.68 7 6 C6.21625 5.87625 5.4325 5.7525 4.625 5.625 C2 5 2 5 0 3 C0 2.01 0 1.02 0 0 Z " fill="#60AAC8" transform="translate(229,25)"/>
<path d="M0 0 C0 3 0 3 -1.75 4.82421875 C-2.4925 5.43910156 -3.235 6.05398437 -4 6.6875 C-4.7425 7.31011719 -5.485 7.93273437 -6.25 8.57421875 C-6.8275 9.04472656 -7.405 9.51523438 -8 10 C-8.66 9.67 -9.32 9.34 -10 9 C-9.04663979 7.68388323 -8.08714226 6.37221039 -7.125 5.0625 C-6.59132812 4.33160156 -6.05765625 3.60070312 -5.5078125 2.84765625 C-3.72258144 0.66005446 -2.83689522 0 0 0 Z " fill="#B4CFD8" transform="translate(212,155)"/>
<path d="M0 0 C1.75 0.0625 1.75 0.0625 4 1 C5.72518887 3.25123006 6.76906007 5.40134903 8 8 C7.67 8.66 7.34 9.32 7 10 C6.34 10 5.68 10 5 10 C4.67 9.01 4.34 8.02 4 7 C3.505 6.525625 3.01 6.05125 2.5 5.5625 C0.75814029 3.74806281 0.42144987 2.44440923 0 0 Z " fill="#61A7C3" transform="translate(272,71)"/>
<path d="M0 0 C0.33 0.66 0.66 1.32 1 2 C1.66 2.33 2.32 2.66 3 3 C1.58603098 3.50757862 0.16868271 4.00574925 -1.25 4.5 C-2.43335938 4.91765625 -2.43335938 4.91765625 -3.640625 5.34375 C-6 6 -6 6 -10 6 C-10 5.34 -10 4.68 -10 4 C-9.36191406 3.79503906 -8.72382813 3.59007812 -8.06640625 3.37890625 C-7.24011719 3.10949219 -6.41382813 2.84007812 -5.5625 2.5625 C-4.73878906 2.29566406 -3.91507813 2.02882812 -3.06640625 1.75390625 C-1.03780412 1.17844506 -1.03780412 1.17844506 0 0 Z " fill="#ADCAD3" transform="translate(150,192)"/>
<path d="M0 0 C0.33 0.66 0.66 1.32 1 2 C3.02463255 2.65213292 3.02463255 2.65213292 5 3 C5.33 4.98 5.66 6.96 6 9 C5.67 8.34 5.34 7.68 5 7 C4.401875 6.71125 3.80375 6.4225 3.1875 6.125 C0.61179002 4.80034915 -1.03454804 3.10584139 -3 1 C-2.01 0.67 -1.02 0.34 0 0 Z " fill="#42A5D2" transform="translate(250,134)"/>
<path d="M0 0 C0.33 0 0.66 0 1 0 C1.42765417 6.41481258 -0.14256832 11.88595404 -2 18 C-3.09267403 14.67580857 -2.88036715 12.39397842 -2.125 9 C-1.94195312 8.154375 -1.75890625 7.30875 -1.5703125 6.4375 C-1.0669283 4.28604974 -0.54521161 2.1411947 0 0 Z " fill="#7EB3C4" transform="translate(294,170)"/>
<path d="M0 0 C0.66 0 1.32 0 2 0 C4.56780471 3.8415976 4.22688882 7.8139175 4.125 12.25 C4.11597656 12.99507812 4.10695313 13.74015625 4.09765625 14.5078125 C4.07418358 16.33868059 4.03831525 18.16938238 4 20 C3.67 20 3.34 20 3 20 C2.95101563 19.05898437 2.90203125 18.11796875 2.8515625 17.1484375 C2.77679688 15.90320313 2.70203125 14.65796875 2.625 13.375 C2.55539062 12.14523438 2.48578125 10.91546875 2.4140625 9.6484375 C2.0185513 6.16346145 1.23738151 3.26950399 0 0 Z " fill="#96E2FB" transform="translate(257,148)"/>
<path d="M0 0 C-2.28611202 2.65860951 -4.02133191 3.53565794 -7.4375 4.25 C-8.19933594 4.42015625 -8.96117188 4.5903125 -9.74609375 4.765625 C-12.11436516 5.01189239 -13.74665061 4.71860801 -16 4 C-14.274773 3.32320342 -12.54461061 2.65898 -10.8125 2 C-9.84957031 1.62875 -8.88664062 1.2575 -7.89453125 0.875 C-5.07817642 0.02363228 -2.91835561 -0.17072647 0 0 Z " fill="#92DEF9" transform="translate(91,182)"/>
<path d="M0 0 C0.99 0 1.98 0 3 0 C3.33 0.66 3.66 1.32 4 2 C6.35599235 2.46751788 6.35599235 2.46751788 9.0625 2.625 C10.44115234 2.73714844 10.44115234 2.73714844 11.84765625 2.8515625 C12.55792969 2.90054688 13.26820313 2.94953125 14 3 C14 2.34 14 1.68 14 1 C14.66 1 15.32 1 16 1 C15.67 1.99 15.34 2.98 15 4 C13.06257659 4.02703381 11.12504521 4.04641125 9.1875 4.0625 C8.10855469 4.07410156 7.02960938 4.08570313 5.91796875 4.09765625 C3 4 3 4 0 3 C0 2.01 0 1.02 0 0 Z " fill="#3892B6" transform="translate(122,159)"/>
<path d="M0 0 C0.33 0.66 0.66 1.32 1 2 C-0.1875 5.0625 -0.1875 5.0625 -2 8 C-4.1875 8.875 -4.1875 8.875 -6 9 C-3.375 2.25 -3.375 2.25 0 0 Z " fill="#3A95BE" transform="translate(33,57)"/>
<path d="M0 0 C0 0.66 0 1.32 0 2 C-5.75 5 -5.75 5 -8 5 C-7.625 3.0625 -7.625 3.0625 -7 1 C-4.53721199 -0.231394 -2.7204945 -0.07159196 0 0 Z " fill="#5E9DB5" transform="translate(249,175)"/>
<path d="M0 0 C0.33 0 0.66 0 1 0 C1.08121924 1.60332791 1.13929134 3.20784026 1.1875 4.8125 C1.23970703 6.15248047 1.23970703 6.15248047 1.29296875 7.51953125 C0.95081002 10.41647515 0.24606427 11.22555028 -2 13 C-1.85851011 11.3954444 -1.71164314 9.79136233 -1.5625 8.1875 C-1.48128906 7.29417969 -1.40007812 6.40085938 -1.31640625 5.48046875 C-1 3 -1 3 0 0 Z " fill="#359DCA" transform="translate(253,225)"/>
<path d="M0 0 C2.3125 -0.3125 2.3125 -0.3125 5 0 C6.97506165 2.60990289 7.9656701 4.89701029 9 8 C8.34 8.66 7.68 9.32 7 10 C6.896875 9.38125 6.79375 8.7625 6.6875 8.125 C6.12474627 5.63473516 6.12474627 5.63473516 3 4 C3 3.01 3 2.02 3 1 C2.01 0.67 1.02 0.34 0 0 Z " fill="#71B4C1" transform="translate(103,206)"/>
<path d="M0 0 C1.37562854 1.28965176 2.70766393 2.62689293 4 4 C4 4.66 4 5.32 4 6 C4.66 6.33 5.32 6.66 6 7 C5.01 7 4.02 7 3 7 C3.33 7.99 3.66 8.98 4 10 C2.68 9.34 1.36 8.68 0 8 C0.66 7.67 1.32 7.34 2 7 C1.67 6.401875 1.34 5.80375 1 5.1875 C0 3 0 3 0 0 Z " fill="#4CA4C9" transform="translate(14,177)"/>
<path d="M0 0 C-1.29017414 0.98113243 -2.58219106 1.95984199 -3.875 2.9375 C-4.59429687 3.48277344 -5.31359375 4.02804688 -6.0546875 4.58984375 C-8 6 -8 6 -10 7 C-9.67 5.68 -9.34 4.36 -9 3 C-8.34 3 -7.68 3 -7 3 C-6.67 2.01 -6.34 1.02 -6 0 C-3 -1 -3 -1 0 0 Z " fill="#42A7CE" transform="translate(216,134)"/>
<path d="M0 0 C0.33 0 0.66 0 1 0 C0.48594831 4.96916636 -0.23384882 9.29026351 -2 14 C-2.33 14 -2.66 14 -3 14 C-3.34615998 8.34605369 -2.43425238 4.96993194 0 0 Z " fill="#75ABC2" transform="translate(290,188)"/>
<path d="M0 0 C0.33 0 0.66 0 1 0 C0.67 3.96 0.34 7.92 0 12 C-0.99 11.01 -1.98 10.02 -3 9 C-2.01 6.03 -1.02 3.06 0 0 Z " fill="#75B2CA" transform="translate(11,89)"/>
<path d="M0 0 C0.33 0 0.66 0 1 0 C1.3690205 9.41002278 1.3690205 9.41002278 -1 14 C-1.33 14 -1.66 14 -2 14 C-2.04254356 12.00045254 -2.04080783 9.99958364 -2 8 C-1.67 7.67 -1.34 7.34 -1 7 C-0.63239269 4.67182036 -0.29758419 2.3381615 0 0 Z " fill="#3E86A5" transform="translate(253,216)"/>
<path d="M0 0 C0.33 0.66 0.66 1.32 1 2 C-0.134375 2.12375 -1.26875 2.2475 -2.4375 2.375 C-4.2009375 2.684375 -4.2009375 2.684375 -6 3 C-6.33 3.66 -6.66 4.32 -7 5 C-7 3.68 -7 2.36 -7 1 C-3.375 -1.125 -3.375 -1.125 0 0 Z " fill="#C0DFE4" transform="translate(115,204)"/>
<path d="M0 0 C0 0.66 0 1.32 0 2 C-3.3 2.33 -6.6 2.66 -10 3 C-5.78492722 -0.16130459 -4.93928888 -0.3367697 0 0 Z " fill="#B4CBD4" transform="translate(139,198)"/>
<path d="M0 0 C1.98 0.66 3.96 1.32 6 2 C5.34 2.66 4.68 3.32 4 4 C1.8359375 3.9765625 1.8359375 3.9765625 -0.625 3.625 C-1.44226563 3.51414063 -2.25953125 3.40328125 -3.1015625 3.2890625 C-3.72804688 3.19367188 -4.35453125 3.09828125 -5 3 C-4.360625 2.690625 -3.72125 2.38125 -3.0625 2.0625 C-1.06389179 1.1654837 -1.06389179 1.1654837 0 0 Z " fill="#ABD2DD" transform="translate(122,199)"/>
<path d="M0 0 C0.33 0.99 0.66 1.98 1 3 C-1.64 4.65 -4.28 6.3 -7 8 C-4.9957983 3.9915966 -3.50944037 2.58590343 0 0 Z " fill="#379CCF" transform="translate(238,182)"/>
<path d="M0 0 C2.9719385 1.12451727 5.33440687 2.22293791 8 4 C7.67 4.66 7.34 5.32 7 6 C4.69 5.01 2.38 4.02 0 3 C0 2.01 0 1.02 0 0 Z " fill="#B2D0D7" transform="translate(243,142)"/>
<path d="M0 0 C3.59391114 1.33488128 6.75490696 2.96022723 10 5 C9.01 5.495 9.01 5.495 8 6 C6.0546875 5.22265625 6.0546875 5.22265625 3.875 4.0625 C3.15054688 3.68222656 2.42609375 3.30195313 1.6796875 2.91015625 C1.12539062 2.60980469 0.57109375 2.30945313 0 2 C0 1.34 0 0.68 0 0 Z " fill="#7CB1C8" transform="translate(217,18)"/>
<path d="M0 0 C0.66 0.33 1.32 0.66 2 1 C1.67 1.66 1.34 2.32 1 3 C0.01 3 -0.98 3 -2 3 C-2 3.66 -2 4.32 -2 5 C-3.98 5 -5.96 5 -8 5 C-5.45378681 2.99940392 -3.01962385 1.20784954 0 0 Z " fill="#74AFC5" transform="translate(87,13)"/>
<path d="M0 0 C2.4375 0.625 2.4375 0.625 5 2 C5.8125 5.125 5.8125 5.125 6 8 C5.34 8 4.68 8 4 8 C3.71125 7.195625 3.4225 6.39125 3.125 5.5625 C2.26737432 2.8673532 2.26737432 2.8673532 0 2 C0 1.34 0 0.68 0 0 Z " fill="#4F92AE" transform="translate(210,196)"/>
<path d="M0 0 C0.91007813 0.00902344 1.82015625 0.01804688 2.7578125 0.02734375 C3.45648438 0.03894531 4.15515625 0.05054688 4.875 0.0625 C4.875 0.3925 4.875 0.7225 4.875 1.0625 C0.915 1.7225 -3.045 2.3825 -7.125 3.0625 C-7.125 2.4025 -7.125 1.7425 -7.125 1.0625 C-4.60024538 -0.19987731 -2.81299534 -0.03606404 0 0 Z " fill="#67AABB" transform="translate(245.125,196.9375)"/>
<path d="M0 0 C2.71435596 0.93305986 3.78043163 1.62673377 5.25 4.125 C5.4975 4.74375 5.745 5.3625 6 6 C2.62496331 4.8141763 0.35277269 3.72426311 -2 1 C-1.34 0.67 -0.68 0.34 0 0 Z " fill="#46ABD2" transform="translate(142,184)"/>
<path d="M0 0 C0.66 0 1.32 0 2 0 C2.53012738 1.28788008 3.0488329 2.58046678 3.5625 3.875 C3.99755859 4.95394531 3.99755859 4.95394531 4.44140625 6.0546875 C5 8 5 8 4 10 C3.67 8.35 3.34 6.7 3 5 C2.01 5 1.02 5 0 5 C0 3.35 0 1.7 0 0 Z " fill="#3F93B9" transform="translate(199,175)"/>
<path d="M0 0 C0.66 0 1.32 0 2 0 C2.99 3.96 3.98 7.92 5 12 C4.34 11.67 3.68 11.34 3 11 C3 10.01 3 9.02 3 8 C2.34 8 1.68 8 1 8 C0.67 5.36 0.34 2.72 0 0 Z " fill="#74AFC5" transform="translate(198,167)"/>
<path d="M0 0 C3 1 3 1 5 3 C2.09399739 4.25664978 0.20395416 5 -3 5 C-3 4.01 -3 3.02 -3 2 C-2.01 1.34 -1.02 0.68 0 0 Z " fill="#53A3C6" transform="translate(124,143)"/>
<path d="M0 0 C0 0.66 0 1.32 0 2 C-2.31 2.66 -4.62 3.32 -7 4 C-7.66 3.34 -8.32 2.68 -9 2 C-3.375 0 -3.375 0 0 0 Z " fill="#6CABC9" transform="translate(98,10)"/>
<path d="M0 0 C2.625 0.9375 2.625 0.9375 5 2 C5 2.66 5 3.32 5 4 C5.99 4.33 6.98 4.66 8 5 C3.78087253 4.5205537 1.20336822 3.83374881 -2 1 C-1.34 0.67 -0.68 0.34 0 0 Z " fill="#72ADBD" transform="translate(91,224)"/>
<path d="M0 0 C4.19469571 0.59924224 8.00999834 1.57499941 12 3 C12 3.33 12 3.66 12 4 C7.75519536 4.33292585 5.64457375 4.43885872 2.0625 2 C1.381875 1.34 0.70125 0.68 0 0 Z " fill="#65A2B6" transform="translate(180,204)"/>
<path d="M0 0 C5.53846154 -0.36923077 5.53846154 -0.36923077 7.875 1.5 C8.24625 1.995 8.6175 2.49 9 3 C8.01 3.495 8.01 3.495 7 4 C4.64018187 3.06421005 2.30368736 2.06652192 0 1 C0 0.67 0 0.34 0 0 Z " fill="#6CA5B6" transform="translate(157,197)"/>
<path d="M0 0 C5.57142857 5.14285714 5.57142857 5.14285714 6 9 C1.3125 5.484375 1.3125 5.484375 0 4 C0 2.68 0 1.36 0 0 Z " fill="#339AC5" transform="translate(8,170)"/>
<path d="M0 0 C-3.01322906 2.00881937 -5.52662474 3.03927918 -9 4 C-9.66 3.67 -10.32 3.34 -11 3 C-7.16674383 0.29417212 -4.67461851 -0.32613618 0 0 Z " fill="#A0E6FC" transform="translate(228,132)"/>
<path d="M0 0 C-4.75 4 -4.75 4 -7 4 C-6.6875 2.0625 -6.6875 2.0625 -6 0 C-3 -1 -3 -1 0 0 Z " fill="#69A7BE" transform="translate(263,240)"/>
<path d="M0 0 C3.375 -0.125 3.375 -0.125 7 0 C7.66 0.66 8.32 1.32 9 2 C2.25 3.125 2.25 3.125 0 2 C0 1.34 0 0.68 0 0 Z " fill="#5DA6C3" transform="translate(102,229)"/>
<path d="M0 0 C0.66 0 1.32 0 2 0 C0.8141763 3.37503669 -0.27573689 5.64722731 -3 8 C-2.25 2.25 -2.25 2.25 0 0 Z " fill="#72A7BC" transform="translate(278,217)"/>
<path d="M0 0 C1.65 0 3.3 0 5 0 C5 0.99 5 1.98 5 3 C5.66 3.33 6.32 3.66 7 4 C4.03 3.505 4.03 3.505 1 3 C0.67 2.01 0.34 1.02 0 0 Z " fill="#3F96B4" transform="translate(84,221)"/>
<path d="M0 0 C1.09898702 3.29696105 0.87124444 4.40494903 0.0625 7.6875 C-0.13214844 8.49574219 -0.32679687 9.30398437 -0.52734375 10.13671875 C-0.76130859 11.05904297 -0.76130859 11.05904297 -1 12 C-1.33 12 -1.66 12 -2 12 C-2.05395478 10.37536158 -2.09277195 8.75021459 -2.125 7.125 C-2.14820312 6.22007812 -2.17140625 5.31515625 -2.1953125 4.3828125 C-2 2 -2 2 0 0 Z " fill="#428EAB" transform="translate(123,146)"/>
<path d="M0 0 C2.97 0.495 2.97 0.495 6 1 C6 2.32 6 3.64 6 5 C2.83884224 3.63016497 2.0072908 3.0109362 0 0 Z " fill="#C0DEDF" transform="translate(248,147)"/>
<path d="M0 0 C0.66 0 1.32 0 2 0 C2.33 2.64 2.66 5.28 3 8 C2.34 8 1.68 8 1 8 C0.67 5.36 0.34 2.72 0 0 Z " fill="#7EB1C6" transform="translate(292,118)"/>
<path d="M0 0 C0.33 0 0.66 0 1 0 C1 2.97 1 5.94 1 9 C0.01 8.67 -0.98 8.34 -2 8 C-1.47731534 5.23723823 -0.89130413 2.6739124 0 0 Z " fill="#6DB0C4" transform="translate(7,99)"/>
<path d="M0 0 C1.65 1.32 3.3 2.64 5 4 C4.67 5.32 4.34 6.64 4 8 C4 7.34 4 6.68 4 6 C3.01 6 2.02 6 1 6 C0.67 4.02 0.34 2.04 0 0 Z " fill="#3B93BE" transform="translate(275,77)"/>
</svg>
