<?xml version="1.0" encoding="UTF-8"?>
<svg version="1.1" xmlns="http://www.w3.org/2000/svg" width="394" height="380">
<path d="M0 0 C1.53720703 0.80244141 1.53720703 0.80244141 3.10546875 1.62109375 C20.24822512 11.06432942 35.38968155 25.15880584 48 40 C49.05380859 41.22203125 49.05380859 41.22203125 50.12890625 42.46875 C55.94443113 49.37663644 61.1377067 56.68021584 66.30078125 64.08203125 C67.00630127 65.07879883 67.00630127 65.07879883 67.72607422 66.09570312 C69 68 69 68 70.77734375 71.39453125 C74.07093425 75.25538338 77.37713534 75.26291902 82.25 75.875 C100.56101486 78.78676472 117.81619818 85.00697627 134 94 C135.61068359 94.86238281 135.61068359 94.86238281 137.25390625 95.7421875 C144.50778209 99.76285431 150.74044513 104.5814235 157 110 C157.81339844 110.67933594 158.62679688 111.35867187 159.46484375 112.05859375 C163.61246004 115.56475093 163.61246004 115.56475093 165 117 C165 117.66 165 118.32 165 119 C165.66 119 166.32 119 167 119 C168.70173077 121.09026753 170.26908135 123.17173033 171.8125 125.375 C172.26173828 126.01115234 172.71097656 126.64730469 173.17382812 127.30273438 C182.50087188 140.74504852 186.66141067 153.50441108 183.71875 169.86328125 C180.49328119 183.93964786 171.78730285 194.42503664 159.6875 202.1015625 C150.69770234 207.32105382 141.17243497 210.85287705 131 213 C130.34 212.67 129.68 212.34 129 212 C129.9075 211.05125 130.815 210.1025 131.75 209.125 C137.07103498 202.85828344 139.77932604 195.75772055 139.37890625 187.50390625 C137.9856588 178.2969824 133.00434061 170.05661593 125.79296875 164.2109375 C121.39278299 161.16753815 116.92580357 159.0444476 112 157 C112.25394531 157.88558594 112.50789063 158.77117187 112.76953125 159.68359375 C126.55326016 209.29469294 122.69051988 261.42423941 98 307 C91.47477102 318.26261449 91.47477102 318.26261449 88 320 C88.14622803 319.11852295 88.29245605 318.2370459 88.44311523 317.32885742 C88.99233873 314.00628403 89.53796643 310.68315899 90.08129883 307.35961914 C90.3155745 305.9310032 90.55121311 304.50260999 90.78833008 303.07446289 C93.22561238 288.38378246 94.23956265 274.1295925 94.25 259.25 C94.25067474 258.38384064 94.25134949 257.51768127 94.25204468 256.62527466 C94.23507519 242.88205226 93.62516787 229.52537709 91 216 C90.82839355 215.09620605 90.65678711 214.19241211 90.47998047 213.26123047 C86.06699187 190.67572043 78.42913336 169.51309446 68 149 C67.31647461 147.64213379 67.31647461 147.64213379 66.61914062 146.25683594 C65.21572106 143.87778027 65.21572106 143.87778027 62.96972656 143.17285156 C62.20112305 143.0797168 61.43251953 142.98658203 60.640625 142.890625 C59.35091797 142.7191394 59.35091797 142.7191394 58.03515625 142.54418945 C57.11605469 142.44710693 56.19695312 142.35002441 55.25 142.25 C54.29480469 142.13422607 53.33960938 142.01845215 52.35546875 141.89916992 C49.57245307 141.57259633 46.78798029 141.28058116 44 141 C42.77796875 140.86722656 41.5559375 140.73445312 40.296875 140.59765625 C-10.22341242 136.22801054 -60.99220225 144.85954545 -107 166 C-105.51381068 173.75295429 -103.01170933 180.92739334 -100.25 188.3125 C-99.83234375 189.45912109 -99.4146875 190.60574219 -98.984375 191.78710938 C-96.43408546 198.65656307 -93.54421552 205.17675223 -90.12792969 211.66088867 C-89 214 -89 214 -89 216 C-88.20980469 215.63648438 -87.41960937 215.27296875 -86.60546875 214.8984375 C-66.65978924 206.0083632 -44.22302557 198.93452307 -22.22265625 198.796875 C-21.49364609 198.79117493 -20.76463593 198.78547485 -20.01353455 198.77960205 C-18.47477644 198.77020581 -16.93599871 198.76363962 -15.3972168 198.75976562 C-13.0997155 198.75015566 -10.80314783 198.71912199 -8.50585938 198.6875 C17.38150409 198.50159559 43.65609067 206.20566952 63 224 C70.86148154 233.08031588 73.60730112 240.18991995 73.3125 252.046875 C72.90745097 257.17074529 71.75041657 260.70624623 69 265 C68.59910156 265.68320312 68.19820313 266.36640625 67.78515625 267.0703125 C61.95520184 275.95888068 51.25132362 281.74038896 41 284 C38.68359375 283.59375 38.68359375 283.59375 37 283 C37.639375 282.236875 38.27875 281.47375 38.9375 280.6875 C42.66033843 275.83652871 42.63913523 270.9010568 42 265 C38.8798306 255.65565847 32.50569532 250.47227445 24.05078125 245.9296875 C19.98730091 243.90142379 15.84853682 242.41833419 11.5 241.125 C10.86167236 240.93421875 10.22334473 240.7434375 9.56567383 240.546875 C-1.95845852 237.39653648 -13.7304762 236.63549784 -25.625 236.6875 C-26.92735596 236.69096436 -28.22971191 236.69442871 -29.5715332 236.69799805 C-44.05393428 236.85977763 -58.17371376 238.52865514 -72 243 C-65.09969411 254.3423778 -57.07095861 264.32431082 -48 274 C-47.31043213 274.74056641 -47.31043213 274.74056641 -46.60693359 275.49609375 C-26.86774468 296.52675401 0.09298915 316.16316792 29.94921875 317.40478516 C44.52056453 317.63723282 56.90793588 312.68124005 67.6875 302.875 C75.61334711 294.35994124 80.2990343 283.87158674 84 273 C84.33 273 84.66 273 85 273 C85.73009228 299.83369919 82.33620215 326.53699935 64.5859375 347.90625 C51.3904417 361.81388367 34.97002293 367.86147821 16.19921875 369.2890625 C-15.69241088 370.02994513 -41.62384623 354.33236817 -64 333 C-64.65742188 332.38382812 -65.31484375 331.76765625 -65.9921875 331.1328125 C-84.00218163 313.78678129 -96.50193374 291.2623913 -108.1875 269.4375 C-108.76794067 268.35662109 -108.76794067 268.35662109 -109.36010742 267.25390625 C-112 262.24341085 -112 262.24341085 -112 260 C-122.50355808 266.21584117 -131.90543241 272.86735783 -141 281 C-142.49933118 282.29244295 -143.99923112 283.58422676 -145.5 284.875 C-148.47028349 287.45374612 -151.22310899 290.21474486 -154 293 C-154.804375 293.75796875 -155.60875 294.5159375 -156.4375 295.296875 C-166.66929017 305.09194242 -174.82641616 316.47856447 -183 328 C-184 326 -184 326 -182.91796875 322.53515625 C-182.35344287 321.03957124 -181.77554951 319.54899312 -181.1875 318.0625 C-180.87200195 317.26271729 -180.55650391 316.46293457 -180.23144531 315.63891602 C-167.91542103 285.27772743 -148.11269477 257.10664846 -123 236 C-123.1858667 235.41847168 -123.3717334 234.83694336 -123.56323242 234.23779297 C-127.04654821 223.26507988 -130.33258572 212.29543625 -132.875 201.0625 C-133.07762451 200.17095215 -133.28024902 199.2794043 -133.48901367 198.36083984 C-134.61085216 193.25277075 -135.43369466 188.19916495 -136 183 C-149.32151145 191.9586635 -161.34635437 201.97241048 -173 213 C-174.0209375 213.95712891 -174.0209375 213.95712891 -175.0625 214.93359375 C-180.18833651 219.88144983 -184.55483334 225.44546766 -189 231 C-189.67160156 231.81597656 -190.34320313 232.63195312 -191.03515625 233.47265625 C-196.41862552 240.0548304 -201.23634164 246.96478233 -206 254 C-207.41618669 249.51303509 -206.06467018 246.17431464 -204.5625 241.875 C-204.28881592 241.07876221 -204.01513184 240.28252441 -203.7331543 239.4621582 C-192.13328931 206.51646733 -173.82320153 176.44906673 -149.921875 151.03515625 C-149.45894043 150.53282471 -148.99600586 150.03049316 -148.51904297 149.51293945 C-147 148 -147 148 -145.14111328 146.58666992 C-140.62758804 142.92675687 -139.48484998 140.00819609 -138.8359375 134.23046875 C-138.70243006 132.24855879 -138.57013167 130.2663054 -138.47665405 128.28210449 C-138.30241137 124.69179494 -138.01207405 121.11056906 -137.73046875 117.52734375 C-137.67572891 116.80471344 -137.62098907 116.08208313 -137.56459045 115.33755493 C-135.96742651 95.28124464 -131.24258167 74.4116839 -123 56 C-122.67 56 -122.34 56 -122 56 C-121.98541748 56.77150391 -121.97083496 57.54300781 -121.95581055 58.33789062 C-121.63257542 73.86231409 -120.9776407 89.2891418 -119.5 104.75 C-119.43428802 105.44762451 -119.36857605 106.14524902 -119.3008728 106.86401367 C-118.72258636 114.54476633 -118.72258636 114.54476633 -117 122 C-116.44957031 121.56171875 -115.89914063 121.1234375 -115.33203125 120.671875 C-82.63538031 95.73117381 -39.71910746 81.62582956 0.57958984 75.44726562 C2.99955144 75.1157407 2.99955144 75.1157407 5 74 C-9.42686673 63.94109292 -24.08111703 55.15581837 -41 50 C-41.74894531 49.75507812 -42.49789062 49.51015625 -43.26953125 49.2578125 C-54.70866516 46.06447875 -68.35020875 46.79786854 -79 52 C-91.72849313 59.24460344 -99.72596669 70.52191488 -105 84 C-105.66 83.67 -106.32 83.34 -107 83 C-107.61110562 54.85153504 -106.67718095 26.81282354 -86.15234375 5.02734375 C-62.16630378 -17.56567756 -27.18895958 -14.50283121 0 0 Z " fill="#000000" transform="translate(208,11)"/>
<path d="" fill="#000000" transform="translate(0,0)"/>
</svg>
