<?xml version="1.0" encoding="UTF-8"?>
<svg version="1.1" xmlns="http://www.w3.org/2000/svg" width="1200" height="1239">
<path d="M0 0 C1.95921387 0.20882813 1.95921387 0.20882813 3.95800781 0.421875 C49.95786246 5.52902925 94.42795053 16.62452844 138 32 C139.1456543 32.4021875 140.29130859 32.804375 141.47167969 33.21875 C185.72635673 48.89086434 228.06909667 70.82705769 267 97 C267.68094727 97.45713379 268.36189453 97.91426758 269.06347656 98.38525391 C277.90249193 104.34162433 286.53955746 110.51366072 295 117 C296.08056802 117.82182651 297.16130196 118.64343489 298.2421875 119.46484375 C307.86264459 126.7960658 317.21435882 134.41494903 326.375 142.3125 C326.93880371 142.7969458 327.50260742 143.2813916 328.08349609 143.78051758 C339.59813337 153.76960177 350.50934399 164.34633267 361.26806641 175.13769531 C363.38981009 177.26484784 365.51691491 179.38653561 367.64453125 181.5078125 C369.0211544 182.88509583 370.39746766 184.26268899 371.7734375 185.640625 C372.39648773 186.261651 373.01953796 186.882677 373.66146851 187.52252197 C377.97051395 191.85427447 382.01604489 196.36912892 386 201 C386.94940381 202.08301149 387.89972461 203.16522091 388.8515625 204.24609375 C396.11335352 212.57320635 402.86845209 221.21899041 409.51416016 230.04248047 C410.81968177 231.76243976 412.14197477 233.46582543 413.48046875 235.16015625 C432.64243651 259.52185396 449.11026693 285.92654637 463.57324219 313.31103516 C465.0015811 316.00297984 466.45576594 318.67965508 467.9140625 321.35546875 C505.08741842 390.20891452 525.74741333 467.89869195 534.203125 578.328125 C534.21014675 579.75857575 534.21723358 581.18902619 534.22438049 582.61947632 C534.24377261 587.16298883 534.24881423 591.70645028 534.25 596.25 C534.25044186 597.0238781 534.25088371 597.7977562 534.25133896 598.59508514 C534.25821067 621.53849852 533.97656625 644.21257035 531 667 C530.82561216 668.41377086 530.65230721 669.82767564 530.47998047 671.24169922 C522.6560614 734.85088735 504.83219773 797.23307779 477 855 C476.43265137 856.17852539 475.86530273 857.35705078 475.28076172 858.57128906 C454.42065794 901.72571509 428.70311266 942.16413993 398 979 C397.51934082 979.57975586 397.03868164 980.15951172 396.54345703 980.75683594 C390.78117329 987.69862753 384.84746279 994.44467574 378.703125 1001.05078125 C376.73804159 1003.16828111 374.85485164 1005.34110314 372.98046875 1007.5390625 C368.17691988 1013.04886218 362.97866889 1018.1706902 357.80297852 1023.32739258 C356.066064 1025.058947 354.33456111 1026.79578359 352.60351562 1028.53320312 C346.90325894 1034.23688161 341.15119557 1039.77875479 335 1045 C333.39231627 1046.45445517 331.78760285 1047.91220895 330.1875 1049.375 C324.93824117 1054.10571502 319.50441004 1058.57083694 314 1063 C312.87864698 1063.91374442 311.75756489 1064.82782139 310.63671875 1065.7421875 C296.00029836 1077.62915882 280.8352885 1088.76486219 265 1099 C264.20287598 1099.52029785 263.40575195 1100.0405957 262.58447266 1100.57666016 C193.98800132 1145.30563629 117.06265618 1175.89007373 -26 1197 C-26.80099121 1197.05639648 -27.60198242 1197.11279297 -28.42724609 1197.17089844 C-102.68494891 1202.35131197 -178.47159222 1192.42291993 -368 1117 C-368.88252441 1116.48308594 -369.76504883 1115.96617188 -370.67431641 1115.43359375 C-381.6922964 1108.97219523 -392.49136544 1102.2613546 -403 1095 C-403.99845947 1094.31236572 -403.99845947 1094.31236572 -405.01708984 1093.61083984 C-437.81777056 1070.94869079 -467.85155032 1045.18703008 -496.0625 1017.0625 C-496.80234131 1016.32667694 -496.80234131 1016.32667694 -497.55712891 1015.57598877 C-503.25974778 1009.89693247 -508.76846948 1004.11802109 -514 998 C-515.45445517 996.39231627 -516.91220895 994.78760285 -518.375 993.1875 C-523.10576093 987.93819023 -527.56997052 982.50376055 -532 977 C-532.92538408 975.86686303 -533.85118393 974.73406551 -534.77734375 973.6015625 C-593.16532814 901.87330924 -634.01417079 815.04491617 -662.3125 673.3125 C-662.53341309 671.56453125 -662.53341309 671.56453125 -662.75878906 669.78125 C-663.22051023 665.85824207 -663.62364197 661.93189241 -664 658 C-664.08613556 657.12324615 -664.17227112 656.24649231 -664.26101685 655.34317017 C-666.01479312 636.99679162 -666.36413463 618.72983637 -666.31805801 600.31877899 C-666.31241333 598.0273176 -666.30959567 595.73586363 -666.30697632 593.44439697 C-666.27049907 571.49296224 -665.84740865 549.7986494 -663 528 C-662.82561216 526.58622914 -662.65230721 525.17232436 -662.47998047 523.75830078 C-652.72157047 444.42380238 -627.40567834 366.70723588 -579 284 C-578.48937012 283.16452637 -577.97874023 282.32905273 -577.45263672 281.46826172 C-570.40125189 269.99247856 -562.9045438 258.90281903 -555 248 C-554.45085937 247.236875 -553.90171875 246.47375 -553.3359375 245.6875 C-544.97987008 234.08821007 -536.22889156 222.9159806 -527 212 C-526.47664062 211.37754395 -525.95328125 210.75508789 -525.4140625 210.11376953 C-513.84578244 196.36909668 -501.5806955 183.41185557 -488.86230469 170.73193359 C-486.73515216 168.61018991 -484.61346439 166.48308509 -482.4921875 164.35546875 C-481.11490417 162.9788456 -479.73731101 161.60253234 -478.359375 160.2265625 C-477.738349 159.60351227 -477.117323 158.98046204 -476.47747803 158.33853149 C-472.14590642 154.029666 -467.63391231 149.98025554 -463 146 C-461.89406694 145.0382941 -460.78851659 144.07614764 -459.68359375 143.11328125 C-397.48458093 89.31184682 -324.37790687 48.46369156 -132 0 C-131.30318115 -0.0762561 -130.6063623 -0.15251221 -129.88842773 -0.2310791 C-86.82686579 -4.85827615 -43.04764536 -4.6502476 0 0 Z " fill="#1DD65F" transform="translate(666,22)"/>
<path d="M0 0 C5.69566061 0.01137974 11.39113397 0.00461404 17.08678818 -0.00687408 C38.6202384 -0.04375765 60.12365679 0.07234895 81.63378906 1.15136719 C82.42512615 1.19019768 83.21646324 1.22902817 84.03178024 1.26903534 C93.17203243 1.73200278 102.245014 2.47721539 111.3325901 3.56947708 C115.82538035 4.10688384 120.29066844 4.4601449 124.81347656 4.67480469 C135.97918732 5.30771255 147.0571389 6.78306513 158.15087891 8.16210938 C161.96072714 8.63462603 165.77175318 9.0965981 169.58300781 9.55761719 C181.9812835 11.07485862 194.22507517 12.80011852 206.46972656 15.26074219 C209.16224348 15.7535832 211.85859013 16.22324943 214.55566406 16.69042969 C215.91806432 16.92789714 217.28045031 17.16544643 218.64282227 17.40307617 C219.32800934 17.52238495 220.01319641 17.64169373 220.71914673 17.76461792 C258.44763352 24.35197672 295.70451491 32.4356682 332.46972656 43.26074219 C333.15832764 43.46271713 333.84692871 43.66469208 334.55639648 43.87278748 C347.60166298 47.70760822 360.53546663 51.81657704 373.40722656 56.19824219 C374.34806091 56.51822174 375.28889526 56.83820129 376.25823975 57.1678772 C404.68136246 66.87454939 432.43429256 78.16652328 459.46972656 91.26074219 C460.54222656 91.77846191 461.61472656 92.29618164 462.71972656 92.82958984 C474.63303449 98.60887882 486.40079661 104.63011028 497.96972656 111.07324219 C499.33907349 111.8272229 499.33907349 111.8272229 500.73608398 112.59643555 C516.09351551 121.30129986 527.48624241 132.47251573 533.57519531 149.31933594 C537.30956141 163.08214057 536.97400176 178.08657531 531.46972656 191.26074219 C531.1075 192.13988281 530.74527344 193.01902344 530.37207031 193.92480469 C524.23972281 207.35360635 513.79611368 216.93089824 500.28222656 222.69824219 C486.51945249 227.54397775 470.9451693 228.42022258 457.40087891 222.33056641 C451.64226639 219.52089503 446.05882405 216.39017269 440.46972656 213.26074219 C392.94401253 186.84169507 342.72051311 167.95459874 290.46972656 153.26074219 C288.96756592 152.83716431 288.96756592 152.83716431 287.43505859 152.4050293 C258.77171441 144.38301854 229.90338099 138.42745627 200.60279846 133.34486389 C195.90990273 132.52684522 191.23958688 131.62965324 186.57250977 130.67456055 C178.93640517 129.17180921 171.1809452 128.28104031 163.46972656 127.26074219 C162.08495838 127.07423776 160.70019289 126.88771331 159.31542969 126.70117188 C136.89762406 123.70463146 114.47008585 121.57724716 91.90722656 120.01074219 C90.72318237 119.92792999 89.53913818 119.8451178 88.31921387 119.75979614 C59.80883936 117.78894508 31.41276981 117.05027674 2.84472656 117.07324219 C2.01484474 117.07365635 1.18496292 117.07407051 0.32993317 117.07449722 C-82.10410255 117.1259582 -165.47467809 124.96383883 -244.62353516 149.20825195 C-259.23816405 153.62272403 -275.65816733 152.51529009 -289.21777344 145.51074219 C-303.32497176 137.22073628 -311.64773427 126.60826653 -317.53027344 111.26074219 C-318.91997435 105.44732288 -318.79251077 99.64599069 -318.84277344 93.69824219 C-318.87177734 92.58126953 -318.90078125 91.46429688 -318.93066406 90.31347656 C-319.03849239 76.00548659 -313.64082507 61.60107909 -303.53027344 51.26074219 C-289.61711905 38.15963961 -272.6455273 34.34844779 -254.58642578 29.99804688 C-252.09046206 29.39588915 -249.59992718 28.77902212 -247.11230469 28.14355469 C-243.97890194 27.34452048 -240.84127804 26.56648867 -237.70019531 25.79833984 C-235.19730835 25.17825016 -232.70016911 24.53686658 -230.20214844 23.89746094 C-217.92820827 20.80361652 -205.61928508 18.25057908 -193.15527344 16.07324219 C-192.46604797 15.95281555 -191.77682251 15.83238892 -191.06671143 15.70831299 C-186.22529105 14.86748869 -181.37898647 14.05831385 -176.53027344 13.26074219 C-175.78760223 13.13753601 -175.04493103 13.01432983 -174.27975464 12.88739014 C-162.00161182 10.85887685 -149.70255065 9.20450904 -137.34277344 7.76074219 C-135.98073792 7.60066177 -135.98073792 7.60066177 -134.59118652 7.43734741 C-89.68632935 2.17391244 -45.2138657 -0.09115169 0 0 Z " fill="#000000" transform="translate(504.5302734375,332.7392578125)"/>
<path d="M0 0 C0.93431854 0.00006672 1.86863708 0.00013344 2.83126831 0.00020218 C31.09451094 0.0107817 59.15638255 0.45013453 87.3125 3.125 C88.73619904 3.25755692 88.73619904 3.25755692 90.18865967 3.39279175 C110.70119336 5.3029502 131.00350705 7.78919711 151.3125 11.25 C152.0783844 11.38012482 152.8442688 11.51024963 153.63336182 11.64431763 C174.96755737 15.27693058 196.09631145 19.3050463 217.11621094 24.47412109 C220.04323814 25.18463839 222.97491288 25.86126765 225.9140625 26.51953125 C251.55354853 32.29423349 276.44651525 41.1115244 301.30273438 49.5670166 C303.13200457 50.18866181 304.96242519 50.80691919 306.79296875 51.42480469 C346.07842819 64.75990008 384.26316727 82.77456746 420.3125 103.25 C421.16956543 103.73307617 422.02663086 104.21615234 422.90966797 104.71386719 C438.29017296 113.45596888 451.06271056 123.10839411 456.70825195 140.66967773 C457.83900971 145.498356 457.743164 150.31445856 457.6875 155.25 C457.69910156 156.27867187 457.71070313 157.30734375 457.72265625 158.3671875 C457.69780398 164.87848179 456.80822824 170.23790921 454.3125 176.25 C454.03317627 176.9416626 453.75385254 177.6333252 453.46606445 178.34594727 C448.69997739 189.61926013 438.76513937 197.14819927 428.05859375 202.34375 C418.56828528 205.90880501 404.96283821 206.18075565 395.5 202.5 C393.410446 201.46981486 391.35223337 200.37561323 389.3125 199.25 C387.66190025 198.36506066 386.01081157 197.48103298 384.359375 196.59765625 C380.54579379 194.54218571 376.74735058 192.46131702 372.95703125 190.36328125 C365.62937787 186.31055675 358.23878887 182.38752011 350.80126953 178.54052734 C349.10943423 177.66324253 347.4203941 176.7805506 345.73388672 175.89306641 C320.14619468 162.45707626 293.36322897 151.86852276 266.1875 142.125 C265.32143127 141.81307709 264.45536255 141.50115417 263.56304932 141.17977905 C253.27825708 137.49026141 242.97046095 134.2014362 232.41723633 131.37011719 C228.837369 130.40712581 225.30315499 129.33321134 221.76953125 128.2109375 C213.92908329 125.76623801 205.97873249 123.80892754 198 121.875 C197.1960379 121.67957611 196.39207581 121.48415222 195.56375122 121.2828064 C179.93743826 117.50176637 164.25574746 114.34788623 148.41070557 111.61328125 C146.22153175 111.23424985 144.03332053 110.84999094 141.84521484 110.46484375 C122.73472856 107.10970323 103.64837182 103.98536645 84.3125 102.25 C82.86929134 102.11340844 81.42609537 101.97668284 79.98291016 101.83984375 C0.24319784 94.43742085 -81.55083096 98.21156335 -198.12890625 124.953125 C-213.29003062 129.62244884 -230.3827447 133.25247569 -245.25 125.734375 C-248.97554512 123.46561355 -252.41148882 121.13600985 -255.6875 118.25 C-256.30367187 117.71503906 -256.91984375 117.18007813 -257.5546875 116.62890625 C-262.10803225 112.39800866 -264.99155704 107.82029391 -267.6875 102.25 C-267.996875 101.62867188 -268.30625 101.00734375 -268.625 100.3671875 C-273.94082316 88.96883593 -273.06322807 73.86307346 -268.9453125 62.21484375 C-263.04307975 48.30243798 -254.01291432 40.02376632 -240.20751953 34.21142578 C-231.96360988 31.06624886 -223.35288883 28.93696424 -214.80703735 26.78530884 C-212.31155971 26.15505279 -209.81841879 25.51584664 -207.32495117 24.87768555 C-167.54661732 14.7527954 -127.48215651 7.73155717 -86.6875 3.25 C-85.81154175 3.15074219 -84.9355835 3.05148437 -84.03308105 2.94921875 C-56.10522086 -0.20390468 -28.06663428 -0.0043642 0 0 Z " fill="#000000" transform="translate(497.6875,538.75)"/>
<path d="M0 0 C2.84318958 0.54759776 5.69414792 1.00440213 8.55419922 1.45556641 C37.10996767 6.0499829 65.5331174 12.21839937 93.00634766 21.32714844 C96.27440788 22.40601853 99.54928691 23.46004418 102.82728577 24.50813293 C224.10744214 63.35867048 224.10744214 63.35867048 248.35107422 100.14697266 C253.32354488 110.1927073 253.4461509 125.07626718 249.94482422 135.67041016 C245.58476413 145.39669804 238.91421745 152.11729946 229.23779297 156.51416016 C220.3096334 159.71230687 209.78248956 160.14040203 200.88232422 156.73291016 C194.38590905 153.65383488 188.19203616 149.94955963 181.97705078 146.34350586 C171.6681816 140.36744171 161.13880038 134.86029049 150.50732422 129.48291016 C149.60884766 129.02561523 148.71037109 128.56832031 147.78466797 128.09716797 C99.60340468 103.74353816 47.50014781 88.8165521 -5.49267578 79.48291016 C-6.17124634 79.36173828 -6.84981689 79.24056641 -7.5489502 79.11572266 C-56.06515096 70.47320864 -105.72234853 68.90285068 -154.87548828 70.93994141 C-156.27418655 70.99694466 -156.27418655 70.99694466 -157.70114136 71.05509949 C-162.60156155 71.27769953 -167.43418728 71.67629462 -172.30432129 72.25578308 C-176.03970381 72.64347461 -179.78432438 72.73559473 -183.53564453 72.87353516 C-195.36368648 73.39558085 -207.06082412 74.7803831 -218.80517578 76.23291016 C-219.90006317 76.36640869 -220.99495056 76.49990723 -222.12301636 76.63745117 C-238.74735945 78.66815457 -255.29776722 80.92236864 -271.79394531 83.83105469 C-274.39806499 84.28999855 -277.0026067 84.74226336 -279.609375 85.18554688 C-293.54165664 87.55667644 -307.31868956 89.98926061 -320.93017578 93.85791016 C-332.49783382 97.09261351 -345.97625979 99.47589043 -357.25830078 93.93212891 C-367.56064195 87.25001601 -374.70701997 78.53742971 -377.49267578 66.48291016 C-378.86127004 54.02671892 -377.83368494 43.31337274 -370.64892578 32.77978516 C-360.25924509 19.83145176 -344.80744824 16.89997025 -329.36767578 13.92041016 C-327.46879687 13.53971967 -325.57011786 13.15803079 -323.67163086 12.77539062 C-299.70588204 7.99491693 -275.59450799 3.94999859 -251.35205078 0.85693359 C-248.10427439 0.43210492 -244.86120326 -0.02190629 -241.61767578 -0.47802734 C-163.19259679 -11.42178465 -78.13090961 -15.3027343 0 0 Z " fill="#000000" transform="translate(628.49267578125,743.51708984375)"/>
</svg>
